<?xml version="1.0" encoding="UTF-8" standalone="no"?>
<svg
   width="959"
   height="593"
   version="1.1"
   id="svg181"
   sodipodi:docname="U.S._states_and_territories_by_population_density.svg"
   inkscape:version="1.4 (86a8ad7, 2024-10-11)"
   xmlns:inkscape="http://www.inkscape.org/namespaces/inkscape"
   xmlns:sodipodi="http://sodipodi.sourceforge.net/DTD/sodipodi-0.dtd"
   xmlns:xlink="http://www.w3.org/1999/xlink"
   xmlns="http://www.w3.org/2000/svg"
   xmlns:svg="http://www.w3.org/2000/svg"
   xmlns:rdf="http://www.w3.org/1999/02/22-rdf-syntax-ns#"
   xmlns:cc="http://creativecommons.org/ns#"
   xmlns:dc="http://purl.org/dc/elements/1.1/">
  <title
     id="title4834">U.S. states and territories by population density</title>
  <sodipodi:namedview
     id="namedview183"
     pagecolor="#ffffff"
     bordercolor="#666666"
     borderopacity="1.0"
     inkscape:pageshadow="2"
     inkscape:pageopacity="0.0"
     inkscape:pagecheckerboard="0"
     showgrid="false"
     showguides="false"
     inkscape:zoom="1.0409852"
     inkscape:cx="599.43215"
     inkscape:cy="405.86552"
     inkscape:window-width="1920"
     inkscape:window-height="991"
     inkscape:window-x="-9"
     inkscape:window-y="-9"
     inkscape:window-maximized="1"
     inkscape:current-layer="g178"
     inkscape:showpageshadow="2"
     inkscape:deskcolor="#d1d1d1" />
  <defs
     id="defs6">
    <linearGradient
       inkscape:collect="always"
       id="linearGradient31930">
      <stop
         style="stop-color:#660000;stop-opacity:1;"
         offset="0"
         id="stop31926" />
      <stop
         style="stop-color:#660000;stop-opacity:0;"
         offset="1"
         id="stop31928" />
    </linearGradient>
    <style
       type="text/css"
       id="style4">


.state {fill:#D3D3D3;}


/*
The .state class sets the default fill color for all states.

Individual states (such as Kansas, Montana, Pennsylvania) can be colored as follows:

#KS, #MT, #PA {fill:#0000FF;}

Place this code in the empty space below.
*/





  </style>
    <radialGradient
       inkscape:collect="always"
       xlink:href="#linearGradient31930"
       id="radialGradient31932"
       cx="808.05"
       cy="155.4"
       fx="808.05"
       fy="155.4"
       r="63.45"
       gradientTransform="matrix(1,0,0,0.76910954,0,35.880378)"
       gradientUnits="userSpaceOnUse" />
  </defs>
  <g
     class="state"
     id="g178"
     style="fill:#d3d3d3">
    <path
       id="AK"
       d="m 161.1,453.7 -0.3,85.4 1.6,1 3.1,0.2 1.5,-1.1 h 2.6 l 0.2,2.9 7,6.8 0.5,2.6 3.4,-1.9 0.6,-0.2 0.3,-3.1 1.5,-1.6 1.1,-0.2 1.9,-1.5 3.1,2.1 0.6,2.9 1.9,1.1 1.1,2.4 3.9,1.8 3.4,6 2.7,3.9 2.3,2.7 1.5,3.7 5,1.8 5.2,2.1 1,4.4 0.5,3.1 -1,3.4 -1.8,2.3 -1.6,-0.8 -1.5,-3.1 -2.7,-1.5 -1.8,-1.1 -0.8,0.8 1.5,2.7 0.2,3.7 -1.1,0.5 -1.9,-1.9 -2.1,-1.3 0.5,1.6 1.3,1.8 -0.8,0.8 c 0,0 -0.8,-0.3 -1.3,-1 -0.5,-0.6 -2.1,-3.4 -2.1,-3.4 l -1,-2.3 c 0,0 -0.3,1.3 -1,1 -0.6,-0.3 -1.3,-1.5 -1.3,-1.5 l 1.8,-1.9 -1.5,-1.5 v -5 h -0.8 l -0.8,3.4 -1.1,0.5 -1,-3.7 -0.6,-3.7 -0.8,-0.5 0.3,5.7 v 1.1 l -1.5,-1.3 -3.6,-6 -2.1,-0.5 -0.6,-3.7 -1.6,-2.9 -1.6,-1.1 v -2.3 l 2.1,-1.3 -0.5,-0.3 -2.6,0.6 -3.4,-2.4 -2.6,-2.9 -4.8,-2.6 -4,-2.6 1.3,-3.2 V 542 l -1.8,1.6 -2.9,1.1 -3.7,-1.1 -5.7,-2.4 h -5.5 l -0.6,0.5 -6.5,-3.9 -2.1,-0.3 -2.7,-5.8 -3.6,0.3 -3.6,1.5 0.5,4.5 1.1,-2.9 1,0.3 -1.5,4.4 3.2,-2.7 0.6,1.6 -3.9,4.4 -1.3,-0.3 -0.5,-1.9 -1.3,-0.8 -1.3,1.1 -2.7,-1.8 -3.1,2.1 -1.8,2.1 -3.4,2.1 -4.7,-0.2 -0.5,-2.1 3.7,-0.6 v -1.3 l -2.3,-0.6 1,-2.4 2.3,-3.9 v -1.8 l 0.2,-0.8 4.4,-2.3 1,1.3 h 2.7 l -1.3,-2.6 -3.7,-0.3 -5,2.7 -2.4,3.4 -1.8,2.6 -1.1,2.3 -4.2,1.5 -3.1,2.6 -0.3,1.6 2.3,1 0.8,2.1 -2.7,3.2 -6.5,4.2 -7.8,4.2 -2.1,1.1 -5.3,1.1 -5.3,2.3 1.8,1.3 -1.5,1.5 -0.5,1.1 -2.7,-1 -3.2,0.2 -0.8,2.3 h -1 l 0.3,-2.4 -3.6,1.3 -2.9,1 -3.4,-1.3 -2.9,1.9 h -3.2 l -2.1,1.3 -1.6,0.8 -2.1,-0.3 -2.6,-1.1 -2.3,0.6 -1,1 -1.6,-1.1 v -1.9 l 3.1,-1.3 6.3,0.6 4.4,-1.6 2.1,-2.1 2.9,-0.6 1.8,-0.8 2.7,0.2 1.6,1.3 1,-0.3 2.3,-2.7 3.1,-1 3.4,-0.6 1.3,-0.3 0.6,0.5 h 0.8 l 1.3,-3.7 4,-1.5 1.9,-3.7 2.3,-4.5 1.6,-1.5 0.3,-2.6 -1.6,1.3 -3.4,0.6 -0.6,-2.4 -1.3,-0.3 -1,1 -0.2,2.9 -1.5,-0.2 -1.5,-5.8 -1.3,1.3 -1.1,-0.5 -0.3,-1.9 -4,0.2 -2.1,1.1 -2.6,-0.3 1.5,-1.5 0.5,-2.6 -0.6,-1.9 1.5,-1 1.3,-0.2 -0.6,-1.8 v -4.4 l -1,-1 -0.8,1.5 h -6.1 l -1.5,-1.3 -0.6,-3.9 -2.1,-3.6 v -1 l 2.1,-0.8 0.2,-2.1 1.1,-1.1 -0.8,-0.5 -1.3,0.5 -1.1,-2.7 1,-5 4.5,-3.2 2.6,-1.6 1.9,-3.7 2.7,-1.3 2.6,1.1 0.3,2.4 2.4,-0.3 3.2,-2.4 1.6,0.6 1,0.6 h 1.6 l 2.3,-1.3 0.8,-4.4 c 0,0 0.3,-2.9 1,-3.4 0.6,-0.5 1,-1 1,-1 l -1.1,-1.9 -2.6,0.8 -3.2,0.8 -1.9,-0.5 -3.6,-1.8 -5,-0.2 -3.6,-3.7 0.5,-3.9 0.6,-2.4 -2.1,-1.8 -1.9,-3.7 0.5,-0.8 6.8,-0.5 h 2.1 l 1,1 h 0.6 l -0.2,-1.6 3.9,-0.6 2.6,0.3 1.5,1.1 -1.5,2.1 -0.5,1.5 2.7,1.6 5,1.8 1.8,-1 -2.3,-4.4 -1,-3.2 1,-0.8 -3.4,-1.9 -0.5,-1.1 0.5,-1.6 -0.8,-3.9 -2.9,-4.7 -2.4,-4.2 2.9,-1.9 h 3.2 l 1.8,0.6 4.2,-0.2 3.7,-3.6 1.1,-3.1 3.7,-2.4 1.6,1 2.7,-0.6 3.7,-2.1 1.1,-0.2 1,0.8 4.5,-0.2 2.7,-3.1 h 1.1 l 3.6,2.4 1.9,2.1 -0.5,1.1 0.6,1.1 1.6,-1.6 3.9,0.3 0.3,3.7 1.9,1.5 7.1,0.6 6.3,4.2 1.5,-1 5.2,2.6 2.1,-0.6 1.9,-0.8 4.8,1.9 z M 46,482.6 l 2.1,5.3 -0.2,1 -2.9,-0.3 -1.8,-4 -1.8,-1.5 H 39 l -0.2,-2.6 1.8,-2.4 1.1,2.4 1.5,1.5 z m -2.6,33.5 3.7,0.8 3.7,1 0.8,1 -1.6,3.7 -3.1,-0.2 -3.4,-3.6 z M 22.7,502 l 1.1,2.6 1.1,1.6 -1.1,0.8 -2.1,-3.1 V 502 Z M 9,575.1 l 3.4,-2.3 3.4,-1 2.6,0.3 0.5,1.6 1.9,0.5 1.9,-1.9 -0.3,-1.6 2.7,-0.6 2.9,2.6 -1.1,1.8 -4.4,1.1 -2.7,-0.5 -3.7,-1.1 -4.4,1.5 -1.6,0.3 z m 48.9,-4.5 1.6,1.9 2.1,-1.6 -1.5,-1.3 z m 2.9,3 1.1,-2.3 2.1,0.3 -0.8,1.9 h -2.4 z m 23.6,-1.9 1.5,1.8 1,-1.1 -0.8,-1.9 z m 8.8,-12.5 1.1,5.8 2.9,0.8 5,-2.9 4.4,-2.6 -1.6,-2.4 0.5,-2.4 -2.1,1.3 -2.9,-0.8 1.6,-1.1 1.9,0.8 3.9,-1.8 0.5,-1.5 -2.4,-0.8 0.8,-1.9 -2.7,1.9 -4.7,3.6 -4.8,2.9 z m 42.3,-19.8 2.4,-1.5 -1,-1.8 -1.8,1 z"
       style="fill:#d9edff;fill-opacity:1"
       inkscape:connector-curvature="0">
      <title
         id="title8">Alaska</title>
    </path>
    <path
       id="HI"
       d="m 233.1,519.3 1.9,-3.6 2.3,-0.3 0.3,0.8 -2.1,3.1 z m 10.2,-3.7 6.1,2.6 2.1,-0.3 1.6,-3.9 -0.6,-3.4 -4.2,-0.5 -4,1.8 z m 30.7,10 3.7,5.5 2.4,-0.3 1.1,-0.5 1.5,1.3 3.7,-0.2 1,-1.5 -2.9,-1.8 -1.9,-3.7 -2.1,-3.6 -5.8,2.9 z m 20.2,8.9 1.3,-1.9 4.7,1 0.6,-0.5 6.1,0.6 -0.3,1.3 -2.6,1.5 -4.4,-0.3 z m 5.3,5.2 1.9,3.9 3.1,-1.1 0.3,-1.6 -1.6,-2.1 -3.7,-0.3 z m 7,-1.2 2.3,-2.9 4.7,2.4 4.4,1.1 4.4,2.7 v 1.9 l -3.6,1.8 -4.8,1 -2.4,-1.5 z m 16.6,15.6 1.6,-1.3 3.4,1.6 7.6,3.6 3.4,2.1 1.6,2.4 1.9,4.4 4,2.6 -0.3,1.3 -3.9,3.2 -4.2,1.5 -1.5,-0.6 -3.1,1.8 -2.4,3.2 -2.3,2.9 -1.8,-0.2 -3.6,-2.6 -0.3,-4.5 0.6,-2.4 -1.6,-5.7 -2.1,-1.8 -0.2,-2.6 2.3,-1 2.1,-3.1 0.5,-1 -1.6,-1.8 z"
       style="fill:#004d99;fill-opacity:1"
       inkscape:connector-curvature="0">
      <title
         id="title11">Hawaii</title>
    </path>
    <path
       id="AL"
       d="m 628.5,466.4 0.6,0.2 1.3,-2.7 1.5,-4.4 2.3,0.6 3.1,6 v 1 l -2.7,1.9 2.7,0.3 5.2,-2.5 -0.3,-7.6 -2.5,-1.8 -2,-2 0.4,-4 10.5,-1.5 25.7,-2.9 6.7,-0.6 5.6,0.1 -0.5,-2.2 -1.5,-0.8 -0.9,-1.1 1,-2.6 -0.4,-5.2 -1.6,-4.5 0.8,-5.1 1.7,-4.8 -0.2,-1.7 -1.8,-0.7 -0.5,-3.6 -2.7,-3.4 -2,-6.5 -1.4,-6.7 -1.8,-5 -3.8,-16 -3.5,-7.9 -0.8,-5.6 0.1,-2.2 -9,0.8 -23.4,2.2 -12.2,0.8 -0.2,6.4 0.2,16.7 -0.7,31 -0.3,14.1 2.8,18.8 1.6,14.7 z"
       style="fill:#0080ff;fill-opacity:1"
       inkscape:connector-curvature="0">
      <title
         id="title14">Alabama</title>
    </path>
    <path
       id="AR"
       d="m 587.3,346.1 -6.4,-0.7 0.9,-3.1 3.1,-2.6 0.6,-2.3 -1.8,-2.9 -31.9,1.2 -23.3,0.7 -23.6,0.3 1.5,6.9 0.1,8.5 1.4,10.9 0.3,38.2 2.1,1.6 3,-1.2 2.9,1.2 0.4,10.1 25.2,-0.2 26.8,-0.8 0.9,-1.9 -0.3,-3.8 -1.7,-3.1 1.5,-1.4 -1.4,-2.2 0.7,-2.4 1.1,-5.9 2.7,-2.3 -0.8,-2.2 4,-5.6 2.5,-1.1 -0.1,-1.7 -0.5,-1.7 2.9,-5.8 2.5,-1.1 0.2,-3.3 2.1,-1.4 0.9,-4.1 -1.4,-4 4.2,-2.4 0.3,-2.1 1.2,-4.2 0.9,-3.1 z"
       style="fill:#0080ff;fill-opacity:1"
       inkscape:connector-curvature="0">
      <title
         id="title17">Arkansas</title>
    </path>
    <path
       id="AZ"
       d="m 135.1,389.7 -0.3,1.5 0.5,1 18.9,10.7 12.1,7.6 14.7,8.6 16.8,10 12.3,2.4 25.4,2.7 6,-39.6 7,-53.1 4.4,-31 -24.6,-3.6 -60.7,-11 -0.2,1.1 -2.6,16.5 -2.1,3.8 -2.8,-0.2 -1.2,-2.6 -2.6,-0.4 -1.2,-1.1 -1.1,0.1 -2.1,1.7 -0.3,6.8 -0.3,1.5 -0.5,12.5 -1.5,2.4 -0.4,3.3 2.8,5 1.1,5.5 0.7,1.1 1.1,0.9 -0.4,2.4 -1.7,1.2 -3.4,1.6 -1.6,1.8 -1.6,3.6 -0.5,4.9 -3,2.9 -1.9,0.9 -0.1,5.8 -0.6,1.6 0.5,0.8 3.9,0.4 -0.9,3 -1.7,2.4 -3.7,0.4 z"
       style="fill:#0080ff;fill-opacity:1"
       inkscape:connector-curvature="0">
      <title
         id="title20">Arizona</title>
    </path>
    <path
       id="CA"
       d="m 122.7,385.9 -19.7,-2.7 -10,-1.5 -0.5,-1.8 v -9.4 l -0.3,-3.2 -2.6,-4.2 -0.8,-2.3 -3.9,-4.2 -2.9,-4.7 -2.7,-0.2 -3.2,-0.8 -0.3,-1 1.5,-0.6 -0.6,-3.2 -1.5,-2.1 -4.8,-0.8 -3.9,-2.1 -1.1,-2.3 -2.6,-4.8 -2.9,-3.1 H 57 l -3.9,-2.1 -4.5,-1.8 -4.2,-0.5 -2.4,-2.7 0.5,-1.9 1.8,-7.1 0.8,-1.9 v -2.4 l -1.6,-1 -0.5,-2.9 -1.5,-2.6 -3.4,-5.8 -1.3,-3.1 -1.5,-4.7 -1.6,-5.3 -3.2,-4.4 -0.5,-2.9 0.8,-3.9 h 1.1 l 2.1,-1.6 1.1,-3.6 -1,-2.7 -2.7,-0.5 -1.9,-2.6 -2.1,-3.7 -0.2,-8.2 0.6,-1.9 0.6,-2.3 0.5,-2.4 -5.7,-6.3 V 236 l 0.3,-0.5 0.3,-3.2 -1.3,-4 -2.3,-4.8 -2.7,-4.5 -1.8,-3.9 1,-3.7 0.6,-5.8 1.8,-3.1 0.3,-6.5 -1.1,-3.6 -1.6,-4.2 -2.7,-4.2 0.8,-3.2 1.5,-4.2 1.8,-0.8 0.3,-1.1 3.1,-2.6 5.2,-11.8 0.2,-7.4 1.69,-4.9 38.69,11.8 25.6,6.6 -8,31.3 -8.67,33.1 12.63,19.2 42.16,62.3 17.1,26.1 -0.4,3.1 2.8,5.2 1.1,5.4 1,1.5 0.7,0.6 -0.2,1.4 -1.4,1 -3.4,1.6 -1.9,2.1 -1.7,3.9 -0.5,4.7 -2.6,2.5 -2.3,1.1 -0.1,6.2 -0.6,1.9 1,1.7 3,0.3 -0.4,1.6 -1.4,2 -3.9,0.6 z M 48.8,337 l 1.3,1.5 -0.2,1.3 -3.2,-0.1 -0.6,-1.2 -0.6,-1.5 z m 1.9,0 1.2,-0.6 3.6,2.1 3.1,1.2 -0.9,0.6 -4.5,-0.2 -1.6,-1.6 z m 20.7,19.8 1.8,2.3 0.8,1 1.5,0.6 0.6,-1.5 -1,-1.8 -2.7,-2 -1.1,0.2 v 1.2 z m -1.4,8.7 1.8,3.2 1.2,1.9 -1.5,0.2 -1.3,-1.2 c 0,0 -0.7,-1.5 -0.7,-1.9 v -2.2 z"
       style="fill:#004d99;fill-opacity:1"
       inkscape:connector-curvature="0">
      <title
         id="title23">California</title>
    </path>
    <path
       id="CO"
       d="m 380.2,235.5 -36,-3.5 -79.1,-8.6 -2.2,22.1 -7,50.4 -1.9,13.7 34,3.9 37.5,4.4 34.7,3 14.3,0.6 z"
       style="fill:#0080ff;fill-opacity:1"
       inkscape:connector-curvature="0">
      <title
         id="title26">Colorado</title>
    </path>
    <path
       id="CT"
       d="m 852,190.9 3.6,-3.2 1.9,-2.1 0.8,0.6 2.7,-1.5 5.2,-1.1 7,-3.5 -0.6,-4.2 -0.8,-4.4 -1.6,-6 -4.3,1.1 -21.8,4.7 0.6,3.1 1.5,7.3 v 8.3 l -0.9,2.1 1.7,2.2 z"
       style="fill:#003366;fill-opacity:1"
       inkscape:connector-curvature="0">
      <title
         id="title29">Connecticut</title>
    </path>
    <path
       id="DE"
       d="m 834.4,247.2 -1,0.5 -3.6,-2.4 -1.8,-4.7 -1.9,-3.6 -2.3,-1 -2.1,-3.6 0.5,-2 0.5,-2.3 0.1,-1.1 -0.6,0.1 -1.7,1 -2,1.7 -0.2,0.3 1.4,4.1 2.3,5.6 3.7,16.1 5,-0.3 6,-1.1 z"
       style="fill:#003366;fill-opacity:1"
       inkscape:connector-curvature="0">
      <title
         id="title32">Delaware</title>
    </path>
    <path
       id="FL"
       d="m 750.2,445.2 -5.2,-0.7 -0.7,0.8 1.5,4.4 -0.4,5.2 -4.1,-1 -0.2,-2.8 H 737 l -5.3,0.7 -32.4,1.9 -8.2,-0.3 -1.7,-1.7 -2.5,-4.2 H 681 l -6.6,0.5 -35.4,4.2 -0.3,2.8 1.6,1.6 2.9,2 0.3,8.4 3.3,-0.6 6,-2.1 6,-0.5 4.4,-0.6 7.6,1.8 8.1,3.9 1.6,1.5 2.9,1.1 1.6,1.9 0.3,2.7 3.2,-1.3 h 3.9 l 3.6,-1.9 3.7,-3.6 3.1,0.2 0.5,-1.1 -0.8,-1 0.2,-1.9 4,-0.8 h 2.6 l 2.9,1.5 4.2,1.5 2.4,3.7 2.7,1 1.1,3.4 3.4,1.6 1.6,2.6 1.9,0.6 5.2,1.3 1.3,3.1 3,3.7 v 9.5 l -1.5,4.7 0.3,2.7 1.3,4.8 1.8,4 0.8,-0.5 1.5,-4.5 -2.6,-1 -0.3,-0.6 1.6,-0.6 4.5,1 0.2,1.6 -3.2,5.5 -2.1,2.4 3.6,3.7 2.6,3.1 2.9,5.3 2.9,3.9 2.1,5 1.8,0.3 1.6,-2.1 1.8,1.1 2.6,4 0.6,3.6 3.1,4.4 0.8,-1.3 3.9,0.3 3.6,2.3 3.4,5.2 0.8,3.4 0.3,2.9 1.1,1 1.3,0.5 2.4,-1 1.5,-1.6 3.9,-0.2 3.1,-1.5 2.7,-3.2 -0.5,-1.9 -0.3,-2.4 0.6,-1.9 -0.3,-1.9 2.4,-1.3 0.3,-3.4 -0.6,-1.8 -0.5,-12 -1.3,-7.6 -4.5,-8.2 -3.6,-5.8 -2.6,-5.3 -2.9,-2.9 -2.9,-7.4 0.7,-1.4 1.1,-1.3 -1.6,-2.9 -4,-3.7 -4.8,-5.5 -3.7,-6.3 -5.3,-9.4 -3.7,-9.7 -2.3,-7.3 z m 17.7,132.7 2.4,-0.6 1.3,-0.2 1.5,-2.3 2.3,-1.6 1.3,0.5 1.7,0.3 0.4,1.1 -3.5,1.2 -4.2,1.5 -2.3,1.2 z m 13.5,-5 1.2,1.1 2.7,-2.1 5.3,-4.2 3.7,-3.9 2.5,-6.6 1,-1.7 0.2,-3.4 -0.7,0.5 -1,2.8 -1.5,4.6 -3.2,5.3 -4.4,4.2 -3.4,1.9 z"
       style="fill:#003366;fill-opacity:1"
       inkscape:connector-curvature="0">
      <title
         id="title35">Florida</title>
    </path>
    <path
       id="GA"
       d="m 750.2,444.2 -5.6,-0.7 -1.4,1.6 1.6,4.7 -0.3,3.9 -2.2,-0.6 -0.2,-3 h -5.2 l -5.3,0.7 -32.3,1.9 -7.7,-0.3 -1.4,-1.2 -2.5,-4.3 -0.8,-3.3 -1.6,-0.9 -0.5,-0.5 0.9,-2.2 -0.4,-5.5 -1.6,-4.5 0.8,-4.9 1.7,-4.8 -0.2,-2.5 -1.9,-0.7 -0.4,-3.2 -2.8,-3.5 -1.9,-6.2 -1.5,-7 -1.7,-4.8 -3.8,-16 -3.5,-8 -0.8,-5.3 0.1,-2.3 3.3,-0.3 13.6,-1.6 18.6,-2 6.3,-1.1 0.5,1.4 -2.2,0.9 -0.9,2.2 0.4,2 1.4,1.6 4.3,2.7 3.2,-0.1 3.2,4.7 0.6,1.6 2.3,2.8 0.5,1.7 4.7,1.8 3,2.2 2.3,3 2.3,1.3 2,1.8 1.4,2.7 2.1,1.9 4.1,1.8 2.7,6 1.7,5.1 2.8,0.7 2.1,1.9 2,5.7 2.9,1.6 1.7,-0.8 0.4,1.2 -3.3,6.2 0.5,2.6 -1.5,4.2 -2.3,10 0.8,6.3 z"
       style="fill:#0066cc;fill-opacity:1"
       inkscape:connector-curvature="0">
      <title
         id="title38">Georgia</title>
    </path>
    <path
       id="IA"
       d="m 556.8,183.6 2.1,2.1 0.3,0.7 -2,3 0.3,4 2.6,4.1 3.1,1.6 2.4,0.3 0.9,1.8 0.2,2.4 2.5,1 0.9,1.1 0.5,1.6 3.8,3.3 0.6,1.9 -0.7,3 -1.7,3.7 -0.6,2.4 -2.1,1.6 -1.6,0.5 -5.7,1.5 -1.6,4.8 0.8,1.8 1.7,1.5 -0.2,3.5 -1.9,1.4 -0.7,1.8 v 2.4 l -1.4,0.4 -1.7,1.4 -0.5,1.7 0.4,1.7 -1.3,1 -2.3,-2.7 -1.4,-2.8 -8.3,0.8 -10,0.6 -49.2,1.2 -1.6,-4.3 -0.4,-6.7 -1.4,-4.2 -0.7,-5.2 -2.2,-3.7 -1,-4.6 -2.7,-7.8 -1.1,-5.6 -1.4,-1.9 -1.3,-2.9 1.7,-3.8 1.2,-6.1 -2.7,-2.2 -0.3,-2.4 0.7,-2.4 1.8,-0.3 61.1,-0.6 21.2,-0.7 z"
       style="fill:#0080ff;fill-opacity:1"
       inkscape:connector-curvature="0">
      <title
         id="title41">Iowa</title>
    </path>
    <path
       id="ID"
       d="m 175.3,27.63 -4.8,17.41 -4.5,20.86 -3.4,16.22 -0.4,9.67 1.2,4.44 3.5,2.66 -0.2,3.91 -3.9,4.4 -4.5,6.6 -0.9,2.9 -1.2,1.1 -1.8,0.8 -4.3,5.3 -0.4,3.1 -0.4,1.1 0.6,1 2.6,-0.1 1.1,2.3 -2.4,5.8 -1.2,4.2 -8.8,35.3 20.7,4.5 39.5,7.9 34.8,6.1 4.9,-29.2 3.8,-24.1 -2.7,-2.4 -0.4,-2.6 -0.8,-1.1 -2.1,1 -0.7,2.6 -3.2,0.5 -3.9,-1.6 -3.8,0.1 -2.5,0.7 -3.4,-1.5 -2.4,0.2 -2.4,2 -2,-1.1 -0.7,-4 0.7,-2.9 -2.5,-2.9 -3.3,-2.6 -2.7,-13.1 -0.1,-4.7 -0.3,-0.1 -0.2,0.4 -5.1,3.5 -1.7,-0.2 -2.9,-3.4 -0.2,-3.1 7,-17.13 -0.4,-1.94 -3.4,-1.15 -0.6,-1.18 -2.6,-3.46 -4.6,-10.23 -3.2,-1.53 -2,-4.95 1.3,-4.63 -3.2,-7.58 4.4,-21.52 z"
       style="fill:#4da5ff;fill-opacity:1"
       inkscape:connector-curvature="0">
      <title
         id="title44">Idaho</title>
    </path>
    <path
       id="IL"
       d="m 618.7,214.3 -0.8,-2.6 -1.3,-3.7 -1.6,-1.8 -1.5,-2.6 -0.4,-5.5 -15.9,1.8 -17.4,1 h -12.3 l 0.2,2.1 2.2,0.9 1.1,1.4 0.4,1.4 3.9,3.4 0.7,2.4 -0.7,3.3 -1.7,3.7 -0.8,2.7 -2.4,1.9 -1.9,0.6 -5.2,1.3 -1.3,4.1 0.6,1.1 1.9,1.8 -0.2,4.3 -2.1,1.6 -0.5,1.3 v 2.8 l -1.8,0.6 -1.4,1.2 -0.4,1.2 0.4,2 -1.6,1.3 -0.9,2.8 0.3,3.9 2.3,7 7,7.6 5.7,3.7 v 4.4 l 0.7,1.2 6.6,0.6 2.7,1.4 -0.7,3.5 -2.2,6.2 -0.8,3 2,3.7 6.4,5.3 4.8,0.8 2.2,5.1 2,3.4 -0.9,2.8 1.5,3.8 1.7,2.1 1.6,-0.3 1,-2.2 2.4,-1.7 2.8,-1 6.1,2.5 0.5,-0.2 v -1.1 l -1.2,-2.7 0.4,-2.8 2.4,-1.6 3.4,-1.2 -0.5,-1.3 -0.8,-2 1.2,-1.3 1,-2.7 v -4 l 0.4,-4.9 2.5,-3 1.8,-3.8 2.5,-4 -0.5,-5.3 -1.8,-3.2 -0.3,-3.3 0.8,-5.3 -0.7,-7.2 -1.1,-15.8 -1.4,-15.3 -0.9,-11.7 z"
       style="fill:#004d99;fill-opacity:1"
       inkscape:connector-curvature="0">
      <title
         id="title47">Illinois</title>
    </path>
    <path
       id="IN"
       d="m 622.9,216.1 1.5,1 1.1,-0.3 2.1,-1.9 2.5,-1.8 14.3,-1.1 18.4,-1.8 1.6,15.5 4.9,42.6 -0.6,2.9 1.3,1.6 0.2,1.3 -2.3,1.6 -3.6,1.7 -3.2,0.4 -0.5,4.8 -4.7,3.6 -2.9,4 0.2,2.4 -0.5,1.4 h -3.5 l -1.4,-1.7 -5.2,3 0.2,3.1 -0.9,0.2 -0.5,-0.9 -2.4,-1.7 -3.6,1.5 -1.4,2.9 -1.2,-0.6 -1.6,-1.8 -4.4,0.5 -5.7,1 -2.5,1.3 v -2.6 l 0.4,-4.7 2.3,-2.9 1.8,-3.9 2.7,-4.2 -0.5,-5.8 -1.8,-3.1 -0.3,-3.2 0.8,-5.3 -0.7,-7.1 -0.9,-12.6 -2.5,-30.1 z"
       style="fill:#0066cc;fill-opacity:1"
       inkscape:connector-curvature="0">
      <title
         id="title50">Indiana</title>
    </path>
    <path
       id="KS"
       d="m 485.9,259.5 -43.8,-0.6 -40.6,-1.2 -21.7,-0.9 -4.3,64.8 24.3,1 44.7,2.1 46.3,0.6 12.6,-0.3 0.7,-35 -1.2,-11.1 -2.5,-2 -2.4,-3 -2.3,-3.6 0.6,-3 1.7,-1.4 v -2.1 l -0.8,-0.7 -2.6,-0.2 -3.5,-3.4 z"
       style="fill:#4da5ff;fill-opacity:1"
       inkscape:connector-curvature="0">
      <title
         id="title53">Kansas</title>
    </path>
    <path
       id="KY"
       d="m 607.2,331.8 12.6,-0.7 0.1,-4.1 h 4.3 l 30.4,-3.2 45.1,-4.3 5.6,-3.6 3.9,-2.1 0.1,-1.9 6,-7.8 4.1,-3.6 2.1,-2.4 -3.3,-2 -2.5,-2.7 -3,-3.8 -0.5,-2.2 -2.6,-1.4 -0.9,-1.9 -0.2,-6.1 -2.6,-2 -1.9,-1.1 -0.5,-2.3 -1.3,0.2 -2,1.2 -2.5,2.7 -1.9,-1.7 -2.5,-0.5 -2.4,1.4 h -2.3 l -1.8,-2 -5.6,-0.1 -1.8,-4.5 -2.9,-1.5 -2.1,0.8 -4.2,0.2 -0.5,2.1 1.2,1.5 0.3,2.1 -2.8,2 -3.8,1.8 -2.6,0.4 -0.5,4.5 -4.9,3.6 -2.6,3.7 0.2,2.2 -0.9,2.3 -4.5,-0.1 -1.3,-1.3 -3.9,2.2 0.2,3.3 -2.4,0.6 -0.8,-1.4 -1.7,-1.2 -2.7,1.1 -1.8,3.5 -2.2,-1 -1.4,-1.6 -3.7,0.4 -5.6,1 -2.8,1.3 -1.2,3.4 -1,1 1.5,3.7 -4.2,1.4 -1.9,1.4 -0.4,2.2 1.2,2.4 v 2.2 l -1.6,0.4 -6.1,-2.5 -2.3,0.9 -2,1.4 -0.8,1.8 1.7,2.4 -0.9,1.8 -0.1,3.3 -2.4,1.3 -2.1,1.7 z"
       style="fill:#0066cc;fill-opacity:1"
       inkscape:connector-curvature="0">
      <title
         id="title56">Kentucky</title>
    </path>
    <path
       id="LA"
       d="m 526.9,485.9 8.1,-0.3 10.3,3.6 6.5,1.1 3.7,-1.5 3.2,1.1 3.2,1 0.8,-2.1 -3.2,-1.1 -2.6,0.5 -2.7,-1.6 0.8,-1.5 3.1,-1 1.8,1.5 1.8,-1 3.2,0.6 1.5,2.4 0.3,2.3 4.5,0.3 1.8,1.8 -0.8,1.6 -1.3,0.8 1.6,1.6 8.4,3.6 3.6,-1.3 1,-2.4 2.6,-0.6 1.8,-1.5 1.3,1 0.8,2.9 -2.3,0.8 0.6,0.6 3.4,-1.3 2.3,-3.4 0.8,-0.5 -2.1,-0.3 0.8,-1.6 -0.2,-1.5 2.1,-0.5 1.1,-1.3 0.6,0.8 0.6,3.1 4.2,0.6 4,1.9 1,1.5 h 2.9 l 1.1,1 2.3,-3.1 V 493 h -1.3 l -3.4,-2.7 -5.8,-0.8 -3.2,-2.3 1.1,-2.7 2.3,0.3 0.2,-0.6 -1.8,-1 v -0.5 h 3.2 l 1.8,-3.1 -1.3,-1.9 -0.3,-2.7 -1.5,0.2 -1.9,2.1 -0.6,2.6 -3.1,-0.6 -1,-1.8 1.8,-1.9 1.9,-1.7 -2.2,-6.5 -3.4,-3.4 1,-7.3 -0.2,-0.5 -1.3,0.2 -33.1,1.4 -0.8,-2.4 0.8,-8.5 8.6,-14.8 -0.9,-2.6 1.4,-0.4 0.4,-2 -2.2,-2 0.1,-1.9 -2,-4.5 -0.4,-5.1 0.1,-0.7 -26.4,0.8 -25.2,0.1 0.4,9.7 0.7,9.5 0.5,3.7 2.6,4.5 0.9,4.4 4.3,6 0.3,3.1 0.6,0.8 -0.7,8.3 -2.8,4.6 1.2,2.4 -0.5,2.6 -0.8,7.3 -1.3,3 0.2,3.7 z"
       style="fill:#0066cc;fill-opacity:1"
       inkscape:connector-curvature="0">
      <title
         id="title59">Louisiana</title>
    </path>
    <path
       id="MA"
       d="m 887.5,172.5 -0.5,-2.3 0.8,-1.5 2.9,-1.5 0.8,3.1 -0.5,1.8 -2.4,1.5 v 1 l 1.9,-1.5 3.9,-4.5 3.9,-1.9 4.2,-1.5 -0.3,-2.4 -1,-2.9 -1.9,-2.4 -1.8,-0.8 -2.1,0.2 -0.5,0.5 1,1.3 1.5,-0.8 2.1,1.6 0.8,2.7 -1.8,1.8 -2.3,1 -3.6,-0.5 -3.9,-6 -2.3,-2.6 h -1.8 l -1.1,0.8 -1.9,-2.6 0.3,-1.5 2.4,-5.2 -2.9,-4.4 -3.7,1.8 -1.8,2.9 -18.3,4.7 -13.8,2.5 -0.6,10.6 0.7,4.9 22,-4.8 11.2,-2.8 2,1.6 3.4,4.3 2.9,4.7 z m 12.5,1.4 2.2,-0.7 0.5,-1.7 1,0.1 1,2.3 -1.3,0.5 -3.9,0.1 z m -9.4,0.8 2.3,-2.6 h 1.6 l 1.8,1.5 -2.4,1 -2.2,1 z"
       style="fill:#001a33;fill-opacity:1"
       inkscape:connector-curvature="0">
      <title
         id="title62">Massachusetts</title>
    </path>
    <path
       id="MD"
       d="m 834.8,264.1 1.7,-3.8 0.5,-4.8 -6.3,1.1 -5.8,0.3 -3.8,-16.8 -2.3,-5.5 -1.5,-4.6 -22.2,4.3 -37.6,7.6 2,10.4 4.8,-4.9 2.5,-0.7 1.4,-1.5 1.8,-2.7 1.6,0.7 2.6,-0.2 2.6,-2.1 2,-1.5 2.1,-0.6 1.5,1.1 2.7,1.4 1.9,1.8 1.3,1.4 4.8,1.6 -0.6,2.9 5.8,2.1 2.1,-2.6 3.7,2.5 -2.1,3.3 -0.7,3.3 -1.8,2.6 v 2.1 l 0.3,0.8 2,1.3 3.4,1.1 4.3,-0.1 3.1,1 2.1,0.3 1,-2.1 -1.5,-2.1 v -1.8 l -2.4,-2.1 -2.1,-5.5 1.3,-5.3 -0.2,-2.1 -1.3,-1.3 c 0,0 1.5,-1.6 1.5,-2.3 0,-0.6 0.5,-2.1 0.5,-2.1 l 1.9,-1.3 1.9,-1.6 0.5,1 -1.5,1.6 -1.3,3.7 0.3,1.1 1.8,0.3 0.5,5.5 -2.1,1 0.3,3.6 0.5,-0.2 1.1,-1.9 1.6,1.8 -1.6,1.3 -0.3,3.4 2.6,3.4 3.9,0.5 1.6,-0.8 3.2,4.2 1,0.4 z m -14.5,0.2 1.1,2.5 0.2,1.8 1.1,1.9 c 0,0 0.9,-0.9 0.9,-1.2 0,-0.3 -0.7,-3.1 -0.7,-3.1 l -0.7,-2.3 z"
       style="fill:#003366;fill-opacity:1"
       inkscape:connector-curvature="0">
      <title
         id="title65">Maryland</title>
    </path>
    <path
       id="ME"
       d="m 865.8,91.9 1.5,0.4 v -2.6 l 0.8,-5.5 2.6,-4.7 1.5,-4 -1.9,-2.4 v -6 l 0.8,-1 0.8,-2.7 -0.2,-1.5 -0.2,-4.8 1.8,-4.8 2.9,-8.9 2.1,-4.2 h 1.3 l 1.3,0.2 v 1.1 l 1.3,2.3 2.7,0.6 0.8,-0.8 v -1 l 4,-2.9 1.8,-1.8 1.5,0.2 6,2.4 1.9,1 9.1,29.9 h 6 l 0.8,1.9 0.2,4.8 2.9,2.3 h 0.8 l 0.2,-0.5 -0.5,-1.1 2.8,-0.5 1.9,2.1 2.3,3.7 V 85 l -2.1,4.7 -1.9,0.6 -3.4,3.1 -4.8,5.5 h -1.3 c -0.6,0 -1,-2.1 -1,-2.1 l -1.8,0.2 -1,1.5 -2.4,1.5 -1,1.5 1.6,1.5 -0.5,0.6 -0.5,2.7 -1.9,-0.2 v -1.6 l -0.3,-1.3 -1.5,0.3 -1.8,-3.2 -2.1,1.3 1.3,1.5 0.3,1.1 -0.8,1.3 0.3,3.1 0.2,1.6 -1.6,2.6 -2.9,0.5 -0.3,2.9 -5.3,3.1 -1.3,0.5 -1.6,-1.5 -3.1,3.6 1,3.2 -1.5,1.3 -0.2,4.4 -1.1,6.3 -2.2,-0.9 -0.5,-3.1 -4,-1.1 -0.2,-2.5 -11.7,-37.43 z m 36.5,15.6 1.5,-1.5 1.4,1.1 0.6,2.4 -1.7,0.9 z m 6.7,-5.9 1.8,1.9 c 0,0 1.3,0.1 1.3,-0.2 0,-0.3 0.2,-2 0.2,-2 l 0.9,-0.8 -0.8,-1.8 -2,0.7 z"
       style="fill:#4da5ff;fill-opacity:1"
       inkscape:connector-curvature="0">
      <title
         id="title68">Maine</title>
    </path>
    <path
       id="MI"
       d="m 644.5,211 19.1,-1.9 0.2,1.1 9.9,-1.5 12,-1.7 0.1,-0.6 0.2,-1.5 2.1,-3.7 2,-1.7 -0.2,-5.1 1.6,-1.6 1.1,-0.3 0.2,-3.6 1.5,-3 1.1,0.6 0.2,0.6 0.8,0.2 1.9,-1 -0.4,-9.1 -3.2,-8.2 -2.3,-9.1 -2.4,-3.2 -2.6,-1.8 -1.6,1.1 -3.9,1.8 -1.9,5 -2.7,3.7 -1.1,0.6 -1.5,-0.6 c 0,0 -2.6,-1.5 -2.4,-2.1 0.2,-0.6 0.5,-5 0.5,-5 l 3.4,-1.3 0.8,-3.4 0.6,-2.6 2.4,-1.6 -0.3,-10 -1.6,-2.3 -1.3,-0.8 -0.8,-2.1 0.8,-0.8 1.6,0.3 0.2,-1.6 -2.6,-2.2 -1.3,-2.6 h -2.6 l -4.5,-1.5 -5.5,-3.4 h -2.7 l -0.6,0.6 -1,-0.5 -3.1,-2.3 -2.9,1.8 -2.9,2.3 0.3,3.6 1,0.3 2.1,0.5 0.5,0.8 -2.6,0.8 -2.6,0.3 -1.5,1.8 -0.3,2.1 0.3,1.6 0.3,5.5 -3.6,2.1 -0.6,-0.2 v -4.2 l 1.3,-2.4 0.6,-2.4 -0.8,-0.8 -1.9,0.8 -1,4.2 -2.7,1.1 -1.8,1.9 -0.2,1 0.6,0.8 -0.6,2.6 -2.3,0.5 v 1.1 l 0.8,2.4 -1.1,6.1 -1.6,4 0.6,4.7 0.5,1.1 -0.8,2.4 -0.3,0.8 -0.3,2.7 3.6,6 2.9,6.5 1.5,4.8 -0.8,4.7 -1,6 -2.4,5.2 -0.3,2.7 -3.2,3.1 z m -33.3,-72.4 -1.3,-1.1 -1.8,-10.4 -3.7,-1.3 -1.7,-2.3 -12.6,-2.8 -2.8,-1.1 -8.1,-2.2 -7.8,-1 -3.9,-5.3 0.7,-0.5 2.7,-0.8 3.6,-2.3 v -1 l 0.6,-0.6 6,-1 2.4,-1.9 4.4,-2.1 0.2,-1.3 1.9,-2.9 1.8,-0.8 1.3,-1.8 2.3,-2.3 4.4,-2.4 4.7,-0.5 1.1,1.1 -0.3,1 -3.7,1 -1.5,3.1 -2.3,0.8 -0.5,2.4 -2.4,3.2 -0.3,2.6 0.8,0.5 1,-1.1 3.6,-2.9 1.3,1.3 h 2.3 l 3.2,1 1.5,1.1 1.5,3.1 2.7,2.7 3.9,-0.2 1.5,-1 1.6,1.3 1.6,0.5 1.3,-0.8 h 1.1 l 1.6,-1 4,-3.6 3.4,-1.1 6.6,-0.3 4.5,-1.9 2.6,-1.3 1.5,0.2 v 5.7 l 0.5,0.3 2.9,0.8 1.9,-0.5 6.1,-1.6 1.1,-1.1 1.5,0.5 v 7 l 3.2,3.1 1.3,0.6 1.3,1 -1.3,0.3 -0.8,-0.3 -3.7,-0.5 -2.1,0.6 -2.3,-0.2 -3.2,1.5 h -1.8 l -5.8,-1.3 -5.2,0.2 -1.9,2.6 -7,0.6 -2.4,0.8 -1.1,3.1 -1.3,1.1 -0.5,-0.2 -1.5,-1.6 -4.5,2.4 h -0.6 l -1.1,-1.6 -0.8,0.2 -1.9,4.4 -1,4 -3.2,6.9 z m -29.6,-56.5 1.8,-2.1 2.2,-0.8 5.4,-3.9 2.3,-0.6 0.5,0.5 -5.1,5.1 -3.3,1.9 -2.1,0.9 z m 86.2,32.1 0.6,2.5 3.2,0.2 1.3,-1.2 c 0,0 -0.1,-1.5 -0.4,-1.6 -0.3,-0.2 -1.6,-1.9 -1.6,-1.9 l -2.2,0.2 -1.6,0.2 -0.3,1.1 z"
       style="fill:#0066cc;fill-opacity:1"
       inkscape:connector-curvature="0">
      <title
         id="title71">Michigan</title>
    </path>
    <path
       id="MN"
       d="M 464.6,66.79 464,70.7 v 10.27 l 1.6,5.03 1.9,3.32 0.5,9.93 1.8,13.45 1.8,7.3 0.4,6.4 v 5.3 l -1.6,1.8 -1.8,1.3 v 1.5 l 0.9,1.7 4.1,3.5 0.7,3.2 v 35.9 l 60.3,-0.6 21.2,-0.7 -0.5,-6 -1.8,-2.1 -7.2,-4.6 -3.6,-5.3 -3.4,-0.9 -2,-2.8 h -3.2 l -3.5,-3.8 -0.5,-7 0.1,-3.9 1.5,-3 -0.7,-2.7 -2.8,-3.1 2.2,-6.1 5.4,-4 1.2,-1.4 -0.2,-8 0.2,-3 2.6,-3 3.8,-2.9 1.3,-0.2 4.5,-5 1.8,-0.8 2.3,-3.9 2.4,-3.6 3.1,-2.6 4.8,-2 9.2,-4.1 3.9,-1.8 0.6,-2.3 -4.4,0.4 -0.7,1.1 h -0.6 l -1.8,-3.1 -8.9,0.3 -1,0.8 h -1 l -0.5,-1.3 -0.8,-1.8 -2.6,0.5 -3.2,3.2 -1.6,0.8 h -3.1 l -2.6,-1 v -2.1 l -1.3,-0.2 -0.5,0.5 -2.6,-1.3 -0.5,-2.9 -1.5,0.5 -0.5,1 -2.4,-0.5 -5.3,-2.4 -3.9,-2.6 h -2.9 l -1.3,-1 -2.3,0.6 -1.1,1.1 -0.3,1.3 h -4.8 v -2.1 l -6.3,-0.3 -0.3,-1.5 h -4.8 l -1.6,-1.6 -1.5,-6.1 -0.8,-5.5 -1.9,-0.8 -2.3,-0.5 -0.6,0.2 -0.3,8.2 -30.1,-0.03 z"
       style="fill:#0066cc;fill-opacity:1"
       inkscape:connector-curvature="0">
      <title
         id="title74">Minnesota</title>
    </path>
    <path
       id="MO"
       d="m 593.1,338.7 0.5,-5.9 4.2,-3.4 1.9,-1 v -2.9 l 0.7,-1.6 -1.1,-1.6 -2.4,0.3 -2.1,-2.5 -1.7,-4.5 0.9,-2.6 -2,-3.2 -1.8,-4.6 -4.6,-0.7 -6.8,-5.6 -2.2,-4.2 0.8,-3.3 2.2,-6 0.6,-3 -1.9,-1 -6.9,-0.6 -1.1,-1.9 v -4.1 l -5.3,-3.5 -7.2,-7.8 -2.3,-7.3 -0.5,-4.2 0.7,-2.4 -2.6,-3.1 -1.2,-2.4 -7.7,0.8 -10,0.6 -48.8,1.2 1.3,2.6 -0.1,2.2 2.3,3.6 3,3.9 3.1,3 2.6,0.2 1.4,1.1 v 2.9 l -1.8,1.6 -0.5,2.3 2.1,3.2 2.4,3 2.6,2.1 1.3,11.6 -0.8,40 0.5,5.7 23.7,-0.2 23.3,-0.7 32.5,-1.3 2.2,3.7 -0.8,3.1 -3.1,2.5 -0.5,1.8 5.2,0.5 4.1,-1.1 z"
       style="fill:#0080ff;fill-opacity:1"
       inkscape:connector-curvature="0">
      <title
         id="title77">Missouri</title>
    </path>
    <path
       id="MS"
       d="m 604.3,472.5 2.6,-4.2 1.8,0.8 6.8,-1.9 2.1,0.3 1.5,0.8 h 5.2 l 0.4,-1.6 -1.7,-14.8 -2.8,-19 1,-45.1 -0.2,-16.7 0.2,-6.3 -4.8,0.3 -19.6,1.6 -13,0.4 -0.2,3.2 -2.8,1.3 -2.6,5.1 0.5,1.6 0.1,2.4 -2.9,1.1 -3.5,5.1 0.8,2.3 -3,2.5 -1,5.7 -0.6,1.9 1.6,2.5 -1.5,1.4 1.5,2.8 0.3,4.2 -1.2,2.5 -0.2,0.9 0.4,5 2,4.5 -0.1,1.7 2.3,2 -0.7,3.1 -0.9,0.3 0.6,1.9 -8.6,15 -0.8,8.2 0.5,1.5 24.2,-0.7 8.2,-0.7 1.9,-0.3 0.6,1.4 -1,7.1 3.3,3.3 2.2,6.4 z"
       style="fill:#0080ff;fill-opacity:1"
       inkscape:connector-curvature="0">
      <title
         id="title80">Mississippi</title>
    </path>
    <path
       id="MT"
       d="m 361.1,70.77 -5.3,57.13 -1.3,15.2 -59.1,-6.6 -49,-7.1 -1.4,11.2 -1.9,-1.7 -0.4,-2.5 -1.3,-1.9 -3.3,1.5 -0.7,2.5 -2.3,0.3 -3.8,-1.6 -4.1,0.1 -2.4,0.7 -3.2,-1.5 -3,0.2 -2.1,1.9 -0.9,-0.6 -0.7,-3.4 0.7,-3.2 -2.7,-3.2 -3.3,-2.5 -2.5,-12.6 -0.1,-5.3 -1.6,-0.8 -0.6,1 -4.5,3.2 -1.2,-0.1 -2.3,-2.8 -0.2,-2.8 7,-17.15 -0.6,-2.67 -3.5,-1.12 -0.4,-0.91 -2.7,-3.5 -4.6,-10.41 -3.2,-1.58 -1.8,-4.26 1.3,-4.63 -3.2,-7.57 4.4,-21.29 32.7,6.89 18.4,3.4 32.3,5.3 29.3,4 29.2,3.5 30.8,3.07 z"
       style="fill:#b2d9ff;fill-opacity:1"
       inkscape:connector-curvature="0">
      <title
         id="title83">Montana</title>
    </path>
    <path
       id="NC"
       d="M 786.7,357.7 774,350 l -3.1,-0.8 -16.6,2.1 -1.6,-3 -2.8,-2.2 -16.7,0.5 -7.4,0.9 -9.2,4.5 -6.8,2.7 -6.5,1.2 -13.4,1.4 0.1,-4.1 1.7,-1.3 2.7,-0.7 0.7,-3.8 3.9,-2.5 3.9,-1.5 4.5,-3.7 4.4,-2.3 0.7,-3.2 4.1,-3.8 0.7,1 2.5,0.2 2.4,-3.6 1.7,-0.4 2.6,0.3 1.8,-4 2.5,-2.4 0.5,-1.8 0.1,-3.5 4.4,0.1 38.5,-5.6 57.5,-12.3 2,4.8 3.6,6.5 2.4,2.4 0.6,2.3 -2.4,0.2 0.8,0.6 -0.3,4.2 -2.6,1.3 -0.6,2.1 -1.3,2.9 -3.7,1.6 -2.4,-0.3 -1.5,-0.2 -1.6,-1.3 0.3,1.3 v 1 h 1.9 l 0.8,1.3 -1.9,6.3 h 4.2 l 0.6,1.6 2.3,-2.3 1.3,-0.5 -1.9,3.6 -3.1,4.8 H 828 l -1.1,-0.5 -2.7,0.6 -5.2,2.4 -6.5,5.3 -3.4,4.7 -1.9,6.5 -0.5,2.4 -4.7,0.5 -5.1,1.5 z m 49.3,-26.2 2.6,-2.5 3.2,-2.6 1.5,-0.6 0.2,-2 -0.6,-6.1 -1.5,-2.3 -0.6,-1.9 0.7,-0.2 2.7,5.5 0.4,4.4 -0.2,3.4 -3.4,1.5 -2.8,2.4 -1.1,1.2 z"
       style="fill:#004d99;fill-opacity:1"
       inkscape:connector-curvature="0">
      <title
         id="title86">North Carolina</title>
    </path>
    <path
       id="ND"
       d="m 471,126.4 -0.4,-6.2 -1.8,-7.3 -1.8,-13.61 -0.5,-9.7 -1.9,-3.18 -1.6,-5.32 V 70.68 l 0.6,-3.85 -1.8,-5.54 -28.6,-0.59 -18.6,-0.6 -26.5,-1.3 -25.2,-2.16 -0.9,14.42 -4.7,50.94 56.8,3.9 56.9,1.7 z"
       style="fill:#8cc6ff;fill-opacity:1"
       inkscape:connector-curvature="0">
      <title
         id="title89">North Dakota</title>
    </path>
    <path
       id="NE"
       d="m 470.3,204.3 -1,-2.3 -0.5,-1.6 -2.9,-1.6 -4.8,-1.5 -2.2,-1.2 -2.6,0.1 -3.7,0.4 -4.2,1.2 -6,-4.1 -2.2,-2 -10.7,0.6 -41.5,-2.4 -35.6,-2.2 -4.3,43.7 33.1,3.3 -1.4,21.1 21.7,1 40.6,1.2 43.8,0.6 h 4.5 l -2.2,-3 -2.6,-3.9 0.1,-2.3 -1.4,-2.7 -1.9,-5.2 -0.4,-6.7 -1.4,-4.1 -0.5,-5 -2.3,-3.7 -1,-4.7 -2.8,-7.9 -1,-5.3 z"
       style="fill:#4da5ff;fill-opacity:1"
       inkscape:connector-curvature="0">
      <title
         id="title92">Nebraska</title>
    </path>
    <path
       id="NH"
       d="m 881.7,141.3 1.1,-3.2 -2.7,-1.2 -0.5,-3.1 -4.1,-1.1 -0.3,-3 -11.7,-37.48 -0.7,0.08 -0.6,1.6 -0.6,-0.5 -1,-1 -1.5,1.9 -0.2,2.29 0.5,8.41 1.9,2.8 v 4.3 l -3.9,4.8 -2.4,0.9 v 0.7 l 1.1,1.9 v 8.6 l -0.8,9.2 -0.2,4.7 1,1.4 -0.2,4.7 -0.5,1.5 1,1.1 5.1,-1.2 13.8,-3.5 1.7,-2.9 4,-1.9 z"
       style="fill:#0066cc;fill-opacity:1"
       inkscape:connector-curvature="0">
      <title
         id="title95">New Hampshire</title>
    </path>
    <path
       id="NJ"
       d="m 823.7,228.3 0.1,-1.5 2.7,-1.3 1.7,-2.8 1.7,-2.4 3.3,-3.2 v -1.2 l -6.1,-4.1 -1,-2.7 -2.7,-0.3 -0.1,-0.9 -0.7,-2.2 2.2,-1.1 0.2,-2.9 -1.3,-1.3 0.2,-1.2 1.9,-3.1 V 193 l 2.5,-3.1 5.6,2.5 6.4,1.9 2.5,1.2 0.1,1.8 -0.5,2.7 0.4,4.5 -2.1,1.9 -1.1,1 0.5,0.5 2.7,-0.3 1.1,-0.8 1.6,3.4 0.2,9.4 0.6,1.1 -1.1,5.5 -3.1,6.5 -2.7,4 -0.8,4.8 -2.1,2.4 h -0.8 l -0.3,-2.7 0.8,-1 -0.2,-1.5 -4,-0.6 -4.8,-2.3 -3.2,-2.9 -1,-2 z"
       style="fill:#001a33;fill-opacity:1"
       inkscape:connector-curvature="0">
      <title
         id="title98">New Jersey</title>
    </path>
    <path
       id="NM"
       d="m 270.2,429.4 -16.7,-2.6 -1.2,9.6 -15.8,-2 6,-39.7 7,-53.2 4.4,-30.9 34,3.9 37.4,4.4 32,2.8 -0.3,10.8 -1.4,-0.1 -7.4,97.7 -28.4,-1.8 -38.1,-3.7 0.7,6.3 z"
       style="fill:#8cc6ff;fill-opacity:1"
       inkscape:connector-curvature="0">
      <title
         id="title101">New Mexico</title>
    </path>
    <path
       id="NV"
       d="m 123.1,173.6 38.7,8.5 26,5.2 -10.6,53.1 -5.4,29.8 -3.3,15.5 -2.1,11.1 -2.6,16.4 -1.7,3.1 -1.6,-0.1 -1.2,-2.6 -2.8,-0.5 -1.3,-1.1 -1.8,0.1 -0.9,0.8 -1.8,1.3 -0.3,7.3 -0.3,1.5 -0.5,12.4 -1.1,1.8 -16.7,-25.5 -42.1,-62.1 -12.43,-19 8.55,-32.6 8.01,-31.3 z"
       style="fill:#4da5ff;fill-opacity:1"
       inkscape:connector-curvature="0">
      <title
         id="title104">Nevada</title>
    </path>
    <path
       id="NY"
       d="m 843.4,200 0.5,-2.7 -0.2,-2.4 -3,-1.5 -6.5,-2 -6,-2.6 -0.6,-0.4 -2.7,-0.3 -2,-1.5 -2.1,-5.9 -3.3,-0.5 -2.4,-2.4 -38.4,8.1 -31.6,6 -0.5,-6.5 1.6,-1.2 1.3,-1.1 1,-1.6 1.8,-1.1 1.9,-1.8 0.5,-1.6 2.1,-2.7 1.1,-1 -0.2,-1 -1.3,-3.1 -1.8,-0.2 -1.9,-6.1 2.9,-1.8 4.4,-1.5 4,-1.3 3.2,-0.5 6.3,-0.2 1.9,1.3 1.6,0.2 2.1,-1.3 2.6,-1.1 5.2,-0.5 2.1,-1.8 1.8,-3.2 1.6,-1.9 h 2.1 l 1.9,-1.1 0.2,-2.3 -1.5,-2.1 -0.3,-1.5 1.1,-2.1 v -1.5 h -1.8 l -1.8,-0.8 -0.8,-1.1 -0.2,-2.6 5.8,-5.5 0.6,-0.8 1.5,-2.9 2.9,-4.5 2.7,-3.7 2.1,-2.4 2.4,-1.8 3.1,-1.2 5.5,-1.3 3.2,0.2 4.5,-1.5 7.4,-2.2 0.7,4.9 2.4,6.5 0.8,5 -1,4.2 2.6,4.5 0.8,2 -0.9,3.2 3.7,1.7 2.7,10.2 v 5.8 l -0.6,10.9 0.8,5.4 0.7,3.6 1.5,7.3 v 8.1 l -1.1,2.3 2.1,2.7 0.5,0.9 -1.9,1.8 0.3,1.3 1.3,-0.3 1.5,-1.3 2.3,-2.6 1.1,-0.6 1.6,0.6 2.3,0.2 7.9,-3.9 2.9,-2.7 1.3,-1.5 4.2,1.6 -3.4,3.6 -3.9,2.9 -7.1,5.3 -2.6,1 -5.8,1.9 -4,1.1 -1,-0.4 z"
       style="fill:#003366;fill-opacity:1"
       inkscape:connector-curvature="0">
      <title
         id="title107">New York</title>
    </path>
    <path
       id="OH"
       d="m 663.8,211.2 1.7,15.5 4.8,41.1 3.9,-0.2 2.3,-0.8 3.6,1.8 1.7,4.2 5.4,0.1 1.8,2 h 1.7 l 2.4,-1.4 3.1,0.5 1.5,1.3 1.8,-2 2.3,-1.4 2.4,-0.4 0.6,2.7 1.6,1 2.6,2 0.8,0.2 2,-0.1 1.2,-0.6 v -2.1 l 1.7,-1.5 0.1,-4.8 1.1,-4.2 1.9,-1.3 1,0.7 1,1.1 0.7,0.2 0.4,-0.4 -0.9,-2.7 v -2.2 l 1.1,-1.4 2.5,-3.6 1.3,-1.5 2.2,0.5 2.1,-1.5 3,-3.3 2.2,-3.7 0.2,-5.4 0.5,-5 V 230 l -1.2,-3.2 1.2,-1.8 1.3,-1.2 -0.6,-2.8 -4.3,-25.6 -6.2,3.7 -3.9,2.3 -3.4,3.7 -4,3.9 -3.2,0.8 -2.9,0.5 -5.5,2.6 -2.1,0.2 -3.4,-3.1 -5.2,0.6 -2.6,-1.5 -2.2,-1.3 z"
       style="fill:#004d99;fill-opacity:1"
       inkscape:connector-curvature="0">
      <title
         id="title110">Ohio</title>
    </path>
    <path
       id="OK"
       d="m 411.9,334.9 -1.8,24.3 -0.9,18 0.2,1.6 4,3.6 1.7,0.9 h 0.9 l 0.9,-2.1 1.5,1.9 1.6,0.1 0.3,-0.2 0.2,-1.1 2.8,1.4 -0.4,3.5 3.8,0.5 2.5,1 4.2,0.6 2.3,1.6 2.5,-1.7 3.5,0.7 2.2,3.1 1.2,0.1 v 2.3 l 2.1,0.7 2.5,-2.1 1.8,0.6 2.7,0.1 0.7,2.3 4.4,1.8 1.7,-0.3 1.9,-4.2 h 1.3 l 1.1,2.1 4.2,0.8 3.4,1.3 3,0.8 1.6,-0.7 0.7,-2.7 h 4.5 l 1.9,0.9 2.7,-1.9 h 1.4 l 0.6,1.4 h 3.6 l 2,-1.8 2.3,0.6 1.7,2.2 3,1.7 3.4,0.9 1.9,1.2 -0.3,-37.6 -1.4,-10.9 -0.1,-8.6 -1.5,-6.6 -0.6,-6.8 0.1,-4.3 -12.6,0.3 -46.3,-0.5 -44.7,-2.1 -41.5,-1.8 -0.4,10.7 z"
       style="fill:#0080ff;fill-opacity:1"
       inkscape:connector-curvature="0">
      <title
         id="title113">Oklahoma</title>
    </path>
    <path
       id="OR"
       d="m 67.44,158.9 28.24,7.2 27.52,6.5 17,3.7 8.8,-35.1 1.2,-4.4 2.4,-5.5 -0.7,-1.3 -2.5,0.1 -1.3,-1.8 0.6,-1.5 0.4,-3.3 4.7,-5.7 1.9,-0.9 0.9,-0.8 0.7,-2.7 0.8,-1.1 3.9,-5.7 3.7,-4 0.2,-3.26 -3.4,-2.49 -1.2,-4.55 -13.1,-3.83 -15.3,-3.47 -14.8,0.37 -1.1,-1.31 -5.1,1.84 -4.5,-0.48 -2.4,-1.58 -1.3,0.54 -4.68,-0.29 -1.96,-1.43 -4.84,-1.77 -1.1,-0.07 -4.45,-1.27 -1.76,1.52 -6.26,-0.24 -5.31,-3.85 0.21,-9.28 -2.05,-3.5 -4.1,-0.6 -0.7,-2.5 -2.4,-0.5 -5.8,2.1 -2.3,6.5 -3.2,10 -3.2,6.5 -5,14.1 -6.5,13.6 -8.1,12.6 -1.9,2.9 -0.8,8.6 -1.3,6 2.71,3.5 z"
       style="fill:#4da5ff;fill-opacity:1"
       inkscape:connector-curvature="0">
      <title
         id="title116">Oregon</title>
    </path>
    <path
       id="PA"
       d="m 736.6,192.2 1.3,-0.5 5.7,-5.5 0.7,6.9 33.5,-6.5 36.9,-7.8 2.3,2.3 3.1,0.4 2,5.6 2.4,1.9 2.8,0.4 0.1,0.1 -2.6,3.2 v 3.1 l -1.9,3.1 -0.2,1.9 1.3,1.3 -0.2,1.9 -2.4,1.1 1,3.4 0.2,1.1 2.8,0.3 0.9,2.5 5.9,3.9 v 0.4 l -3.1,3 -1.5,2.2 -1.7,2.8 -2.7,1.2 -1.4,0.3 -2.1,1.3 -1.6,1.4 -22.4,4.3 -38.7,7.8 -11.3,1.4 -3.9,0.7 -5.1,-22.4 -4.3,-25.9 z"
       style="fill:#004d99;fill-opacity:1"
       inkscape:connector-curvature="0">
      <title
         id="title119">Pennsylvania</title>
    </path>
    <path
       id="RI"
       d="m 873.6,175.7 -0.8,-4.4 -1.6,-6 5.7,-1.5 1.5,1.3 3.4,4.3 2.8,4.4 -2.8,1.4 -1.3,-0.2 -1.1,1.8 -2.4,1.9 -2.8,1.1 z"
       style="fill:#001a33;fill-opacity:1"
       inkscape:connector-curvature="0">
      <title
         id="title122">Rhode Island</title>
    </path>
    <path
       id="SC"
       d="m 759,413.6 -2.1,-1 -1.9,-5.6 -2.5,-2.3 -2.5,-0.5 -1.5,-4.6 -3,-6.5 -4.2,-1.8 -1.9,-1.8 -1.2,-2.6 -2.4,-2 -2.3,-1.3 -2.2,-2.9 -3.2,-2.4 -4.4,-1.7 -0.4,-1.4 -2.3,-2.8 -0.5,-1.5 -3.8,-5.4 -3.4,0.1 -3.9,-2.5 -1.2,-1.2 -0.2,-1.4 0.6,-1.6 2.7,-1.3 -0.8,-2 6.4,-2.7 9.2,-4.5 7.1,-0.9 16.4,-0.5 2.3,1.9 1.8,3.5 4.6,-0.8 12.6,-1.5 2.7,0.8 12.5,7.4 10.1,8.3 -5.3,5.4 -2.6,6.1 -0.5,6.3 -1.6,0.8 -1.1,2.7 -2.4,0.6 -2.1,3.6 -2.7,2.7 -2.3,3.4 -1.6,0.8 -3.6,3.4 -2.9,0.2 1,3.2 -5,5.3 -2.3,1.6 z"
       style="fill:#0066cc;fill-opacity:1"
       inkscape:connector-curvature="0">
      <title
         id="title125">South Carolina</title>
    </path>
    <path
       id="SD"
       d="m 471,181.1 -0.9,3.2 0.4,3 2.6,2 -1.2,5.4 -1.8,4.1 1.5,3.3 0.7,1.1 -1.3,0.1 -0.7,-1.6 -0.6,-2 -3.3,-1.8 -4.8,-1.5 -2.5,-1.3 -2.9,0.1 -3.9,0.4 -3.8,1.2 -5.3,-3.8 -2.7,-2.4 -10.9,0.8 -41.5,-2.4 -35.6,-2.2 1.5,-24.8 2.8,-34 0.4,-5 56.9,3.9 56.9,1.7 v 2.7 l -1.3,1.5 -2,1.5 -0.1,2.2 1.1,2.2 4.1,3.4 0.5,2.7 v 35.9 z"
       style="fill:#8cc6ff;fill-opacity:1"
       inkscape:connector-curvature="0">
      <title
         id="title128">South Dakota</title>
    </path>
    <path
       id="TN"
       d="m 670.8,359.6 -13.1,1.2 -23.3,2.2 -37.6,2.7 -11.8,0.4 0.9,-0.6 0.9,-4.5 -1.2,-3.6 3.9,-2.3 0.4,-2.5 1.2,-4.3 3,-9.5 0.5,-5.6 0.3,-0.2 12.3,-0.2 13.6,-0.8 0.1,-3.9 3.5,-0.1 30.4,-3.3 54,-5.2 10.3,-1.5 7.6,-0.2 2.4,-1.9 1.3,0.3 -0.1,3.3 -0.4,1.6 -2.4,2.2 -1.6,3.6 -2,-0.4 -2.4,0.9 -2.2,3.3 -1.4,-0.2 -0.8,-1.2 -1.1,0.4 -4.3,4 -0.8,3.1 -4.2,2.2 -4.3,3.6 -3.8,1.5 -4.4,2.8 -0.6,3.6 -2.5,0.5 -2,1.7 -0.2,4.8 z"
       style="fill:#0066cc;fill-opacity:1"
       inkscape:connector-curvature="0">
      <title
         id="title131">Tennessee</title>
    </path>
    <path
       id="TX"
       d="m 282.8,425.6 37,3.6 29.3,1.9 7.4,-97.7 54.4,2.4 -1.7,23.3 -1,18 0.2,2 4.4,4.1 2,1.1 h 1.8 l 0.5,-1.2 0.7,0.9 2.4,0.2 1.1,-0.6 v -0.2 l 1,0.5 -0.4,3.7 4.5,0.7 2.4,0.9 4.2,0.7 2.6,1.8 2.8,-1.9 2.7,0.6 2.2,3.1 0.8,0.1 v 2.1 l 3.3,1.1 2.5,-2.1 1.5,0.5 2.1,0.1 0.6,2.1 5.2,2 2.3,-0.5 1.9,-4 h 0.1 l 1.1,1.9 4.6,0.9 3.4,1.3 3.2,1 2.4,-1.2 0.7,-2.3 h 3.6 l 2.1,1 3,-2 h 0.4 l 0.5,1.4 h 4.7 l 1.9,-1.8 1.3,0.4 1.7,2.1 3.3,1.9 3.4,1 2.5,1.4 2.7,2 3.1,-1.2 2.1,0.8 0.7,20 0.7,9.5 0.6,4.1 2.6,4.4 0.9,4.5 4.2,5.9 0.3,3.1 0.6,0.8 -0.7,7.7 -2.9,4.8 1.3,2.6 -0.5,2.4 -0.8,7.2 -1.3,3 0.3,4.2 -5.6,1.6 -9.9,4.5 -1,1.9 -2.6,1.9 -2.1,1.5 -1.3,0.8 -5.7,5.3 -2.7,2.1 -5.3,3.2 -5.7,2.4 -6.3,3.4 -1.8,1.5 -5.8,3.6 -3.4,0.6 -3.9,5.5 -4,0.3 -1,1.9 2.3,1.9 -1.5,5.5 -1.3,4.5 -1.1,3.9 -0.8,4.5 0.8,2.4 1.8,7 1,6.1 1.8,2.7 -1,1.5 -3.1,1.9 -5.7,-3.9 -5.5,-1.1 -1.3,0.5 -3.2,-0.6 -4.2,-3.1 -5.2,-1.1 -7.6,-3.4 -2.1,-3.9 -1.3,-6.5 -3.2,-1.9 -0.6,-2.3 0.6,-0.6 0.3,-3.4 -1.3,-0.6 -0.6,-1 1.3,-4.4 -1.6,-2.3 -3.2,-1.3 -3.4,-4.4 -3.6,-6.6 -4.2,-2.6 0.2,-1.9 -5.3,-12.3 -0.8,-4.2 -1.8,-1.9 -0.2,-1.5 -6,-5.3 -2.6,-3.1 v -1.1 l -2.6,-2.1 -6.8,-1.1 -7.4,-0.6 -3.1,-2.3 -4.5,1.8 -3.6,1.5 -2.3,3.2 -1,3.7 -4.4,6.1 -2.4,2.4 -2.6,-1 -1.8,-1.1 -1.9,-0.6 -3.9,-2.3 v -0.6 l -1.8,-1.9 -5.2,-2.1 -7.4,-7.8 -2.3,-4.7 v -8.1 l -3.2,-6.5 -0.5,-2.7 -1.6,-1 -1.1,-2.1 -5,-2.1 -1.3,-1.6 -7.1,-7.9 -1.3,-3.2 -4.7,-2.3 -1.5,-4.4 -2.6,-2.9 -1.7,-0.5 z m 174.4,141.7 -0.6,-7.1 -2.7,-7.2 -0.6,-7 1.5,-8.2 3.3,-6.9 3.5,-5.4 3.2,-3.6 0.6,0.2 -4.8,6.6 -4.4,6.5 -2,6.6 -0.3,5.2 0.9,6.1 2.6,7.2 0.5,5.2 0.2,1.5 z"
       style="fill:#0066cc;fill-opacity:1"
       inkscape:connector-curvature="0">
      <title
         id="title134">Texas</title>
    </path>
    <path
       id="UT"
       d="m 228.4,305.9 24.6,3.6 1.9,-13.7 7,-50.5 2.3,-22 -32.2,-3.5 2.2,-13.1 1.8,-10.6 -34.7,-6.1 -12.5,-2.5 -10.6,52.9 -5.4,30 -3.3,15.4 -1.7,9.2 z"
       style="fill:#4da5ff;fill-opacity:1"
       inkscape:connector-curvature="0">
      <title
         id="title137">Utah</title>
    </path>
    <path
       id="VA"
       d="m 834.7,265.2 -0.2,2.8 -2.9,3.8 -0.4,4.6 0.5,3.4 -1.8,5 -2.2,1.9 -1.5,-4.6 0.4,-5.4 1.6,-4.2 0.7,-3.3 -0.1,-1.7 z m -60.3,44.6 -38.6,5.6 -4.8,-0.1 -2.2,-0.3 -2.5,1.9 -7.3,0.1 -10.3,1.6 -6.7,0.6 4.1,-2.6 4.1,-2.3 v -2.1 l 5.7,-7.3 4.1,-3.7 2.2,-2.5 3.6,4.3 3.8,0.9 2.7,-1 2,-1.5 2.4,1.2 4.6,-1.3 1.7,-4.4 2.4,0.7 3.2,-2.3 1.6,0.4 2.8,-3.2 0.2,-2.7 -0.8,-1.2 4.8,-10.5 1.8,-5.2 0.5,-4.7 0.7,-0.2 1.1,1.7 1.5,1.2 3.9,-0.2 1.7,-8.1 3,-0.6 0.8,-2.6 2.8,-2.2 1.1,-2.1 1.8,-4.3 0.1,-4.6 3.6,1.4 6.6,3.1 0.3,-5.2 3.4,1.2 -0.6,2.9 8.6,3.1 1.4,1.8 -0.8,3.3 -1.3,1.3 -0.5,1.7 0.5,2.4 2,1.3 3.9,1.4 2.9,1 4.9,0.9 2.2,2.1 3.2,0.4 0.9,1.2 -0.4,4.7 1.4,1.1 -0.5,1.9 1.2,0.8 -0.2,1.4 -2.7,-0.1 0.1,1.6 2.3,1.5 0.1,1.4 1.8,1.8 0.5,2.5 -2.6,1.4 1.6,1.5 5.8,-1.7 3.7,6.2 z"
       style="fill:#004d99;fill-opacity:1"
       inkscape:connector-curvature="0">
      <title
         id="title140">Virginia</title>
    </path>
    <path
       id="VT"
       d="m 832.7,111.3 2.4,6.5 0.8,5.3 -1,3.9 2.5,4.4 0.9,2.3 -0.7,2.6 3.3,1.5 2.9,10.8 v 5.3 l 11.5,-2.1 -1,-1.1 0.6,-1.9 0.2,-4.3 -1,-1.4 0.2,-4.7 0.8,-9.3 v -8.5 l -1.1,-1.8 v -1.6 l 2.8,-1.1 3.5,-4.4 v -3.6 l -1.9,-2.7 -0.3,-5.79 -26.1,6.79 z"
       style="fill:#0080ff;fill-opacity:1"
       inkscape:connector-curvature="0">
      <title
         id="title143">Vermont</title>
    </path>
    <path
       id="WA"
       d="m 74.5,67.7 -2.3,-4.3 -4.1,-0.7 -0.4,-2.4 -2.5,-0.6 -2.9,-0.5 -1.8,1 -2.3,-2.9 0.3,-2.9 2.7,-0.3 1.6,-4 L 60.2,49 60.4,45.3 64.8,44.7 62.1,42 60.6,34.9 61.2,32 v -7.9 l -1.8,-3.2 2.3,-9.4 2.1,0.5 2.4,2.9 2.7,2.6 3.2,1.9 4.5,2.1 3.1,0.6 2.9,1.5 3.4,1 2.3,-0.2 V 22 l 1.3,-1.1 2.1,-1.3 0.3,1.1 0.3,1.8 -2.3,0.5 -0.3,2.1 1.8,1.5 1.1,2.4 0.6,1.9 1.5,-0.2 0.2,-1.3 -1,-1.3 -0.5,-3.2 0.8,-1.8 -0.6,-1.5 V 19 L 95.4,15.4 94.3,12.8 91.9,8 92.2,7.2 93.6,6.4 98,7.9 l 9.7,2.7 8.6,1.9 20,5.7 23,5.7 15,3.49 -4.8,17.56 -4.5,20.83 -3.4,16.25 -0.4,9.18 -12.9,-3.72 -15.3,-3.47 -14.5,0.32 -1.1,-1.53 -5.7,2.09 -3.9,-0.42 -2.6,-1.79 -1.7,0.65 -4.15,-0.25 -1.72,-1.32 -5.16,-1.82 -1.18,-0.16 -4.8,-1.39 -1.92,1.65 -5.65,-0.25 -4.61,-3.35 z m 9.6,-55.4 2,-0.2 0.5,1.4 1.5,-1.6 h 2.3 l 0.8,1.5 -1.5,1.7 0.6,0.8 -0.7,2 -1.4,0.4 c 0,0 -0.9,0.1 -0.9,-0.2 0,-0.3 1.5,-2.6 1.5,-2.6 l -1.7,-0.6 -0.3,1.5 -0.7,0.6 -1.5,-2.3 z"
       style="fill:#0066cc;fill-opacity:1"
       inkscape:connector-curvature="0">
      <title
         id="title146">Washington</title>
    </path>
    <path
       id="WI"
       d="m 541.4,109.9 2.9,0.5 2.9,-0.6 7.4,-3.2 2.9,-1.9 2.1,-0.8 1.9,1.5 -1.1,1.1 -1.9,3.1 -0.6,1.9 1,0.6 1.8,-1 1.1,-0.2 2.7,0.8 0.6,1.1 1.1,0.2 0.6,-1.1 4,5.3 8.2,1.2 8.2,2.2 2.6,1.1 12.3,2.6 1.6,2.3 3.6,1.2 1.7,10.2 1.6,1.4 1.5,0.9 -1.1,2.3 -1.8,1.6 -2.1,4.7 -1.3,2.4 0.2,1.8 1.5,0.3 1.1,-1.9 1.5,-0.8 0.8,-2.3 1.9,-1.8 2.7,-4 4.2,-6.3 0.8,-0.5 0.3,1 -0.2,2.3 -2.9,6.8 -2.7,5.7 -0.5,3.2 -0.6,2.6 0.8,1.3 -0.2,2.7 -1.9,2.4 -0.5,1.8 0.6,3.6 0.6,3.4 -1.5,2.6 -0.8,2.9 -1,3.1 1.1,2.4 0.6,6.1 1.6,4.5 -0.2,3 -15.9,1.8 -17.5,1 H 567 l -0.7,-1.5 -2.9,-0.4 -2.6,-1.3 -2.3,-3.7 -0.3,-3.6 2,-2.9 -0.5,-1.4 -2.1,-2.2 -0.8,-3.3 -0.6,-6.8 -2.1,-2.5 -7,-4.5 -3.8,-5.4 -3.4,-1 -2.2,-2.8 h -3.2 l -2.9,-3.3 -0.5,-6.5 0.1,-3.8 1.5,-3.1 -0.8,-3.2 -2.5,-2.8 1.8,-5.4 5.2,-3.8 1.6,-1.9 -0.2,-8.1 0.2,-2.8 2.4,-2.8 z"
       style="fill:#0066cc;fill-opacity:1"
       inkscape:connector-curvature="0">
      <title
         id="title149">Wisconsin</title>
    </path>
    <path
       id="WV"
       d="m 758.9,254.3 5.8,-6 2.6,-0.8 1.6,-1.5 1.5,-2.2 1.1,0.3 3.1,-0.2 4.6,-3.6 1.5,-0.5 1.3,1 2.6,1.2 3,3 -0.4,4.3 -5.4,-2.6 -4.8,-1.8 -0.1,5.9 -2.6,5.7 -2.9,2.4 -0.8,2.3 -3,0.5 -1.7,8.1 -2.8,0.2 -1.1,-1 -1.2,-2 -2.2,0.5 -0.5,5.1 -1.8,5.1 -5,11 0.9,1.4 -0.1,2 -2.2,2.5 -1.6,-0.4 -3.1,2.3 -2.8,-0.8 -1.8,4.9 -3.8,1 -2.5,-1.3 -2.5,1.9 -2.3,0.7 -3.2,-0.8 -3.8,-4.5 -3.5,-2.2 -2.5,-2.5 -2.9,-3.7 -0.5,-2.3 -2.8,-1.7 -0.6,-1.3 -0.2,-5.6 0.3,0.1 2.4,-0.2 1.8,-1 V 275 l 1.7,-1.5 0.1,-5.2 0.9,-3.6 1.1,-0.7 0.4,0.3 1,1.1 1.7,0.5 1.1,-1.3 -1,-3.1 v -1.6 l 3.1,-4.6 1.2,-1.3 2,0.5 2.6,-1.8 3.1,-3.4 2.4,-4.1 0.2,-5.6 0.5,-4.8 v -4.9 l -1.1,-3 0.9,-1.3 0.8,-0.7 4.3,19.3 4.3,-0.8 11.2,-1.3 z"
       style="fill:#0080ff;fill-opacity:1"
       inkscape:connector-curvature="0">
      <title
         id="title152">West Virginia</title>
    </path>
    <path
       id="WY"
       d="m 353,161.9 -1.5,25.4 -4.4,44 -2.7,-0.3 -83.3,-9.1 -27.9,-3 2,-12 6.9,-41 3.8,-24.2 1.3,-11.2 48.2,7 59.1,6.5 z"
       style="fill:#b2d9ff;fill-opacity:1"
       inkscape:connector-curvature="0">
      <title
         id="title155">Wyoming</title>
    </path>
    <path
       id="AS"
       d="m 609.5,582.5 c 0.2,-0.1 0.5,-0.6 0.7,-0.9 0.3,-0.5 -0.3,-0.6 0.4,-0.7 0.3,-0.1 0.7,0.4 0.8,0.5 0.2,0.2 0.4,0.4 0.5,-0.1 0.1,-0.2 0.7,-0.9 0.9,-1.1 0.3,-0.2 0.6,-0.2 0.9,-0.5 0.2,-0.2 0.5,-0.4 0.7,-0.6 0.3,-0.3 0.4,-0.4 0.6,-0.7 0.2,-0.3 0.4,-0.5 0.6,-0.7 0.4,-0.4 -1,-0.2 -1.6,-0.2 -0.2,0 0.3,-0.6 0.3,-0.8 0.1,-0.4 0.2,-0.4 0.6,-0.5 0.6,-0.1 0.6,0.1 0.6,0.6 0,0.3 0.5,-0.4 0.5,-0.7 0.1,-0.4 0.4,-0.6 0.7,-0.7 0.3,-0.2 0.7,-0.2 0.9,-0.4 0.4,-0.2 0.4,-0.2 0.3,-0.5 -0.1,-0.2 0.1,-0.6 0,-0.9 -0.1,-0.5 0.5,-0.1 0.2,-0.6 -0.1,-0.2 -0.8,-0.4 -0.9,-0.4 -0.4,-0.2 -0.7,-0.1 -1.1,-0.3 -0.4,-0.2 -0.3,-0.3 -0.1,-0.6 0.1,-0.1 1,0 1.1,0.1 0.4,0.1 0.8,0.1 1.2,0.1 0.5,0 0.8,0 1.2,0.2 0.3,0.1 0.2,0.4 0.2,0.9 0,0.5 -0.1,0.7 0.3,0.8 0.5,0.1 0.7,0 1,-0.2 0.1,-0.1 1.1,-0.2 1.2,-0.2 0.4,-0.1 0.7,-0.2 0.9,-0.4 0.3,-0.3 0.7,-0.5 0.9,-0.6 0.3,-0.3 0.6,-0.3 0.9,-0.4 0.5,-0.1 0.7,0.2 0.9,0.4 0.2,0.2 0.1,0.7 0.1,1 0,0.2 1.4,-0.3 1.5,-0.4 0.4,-0.2 0.7,-0.1 0.9,-0.4 0.4,-0.3 0.1,-0.6 0.7,-0.4 0.4,0.1 0.7,-0.1 1.1,-0.2 0.4,-0.1 0.3,-0.3 0.3,-0.8 0,-0.4 0,-0.7 0,-1.1 0,-0.5 -0.3,-0.4 -0.7,-0.5 -0.3,-0.1 -0.8,0.1 -0.9,0.3 -0.3,0.3 -0.4,0.2 -0.5,0.6 -0.1,0.4 -0.2,0.5 -0.5,0.6 -0.2,0.1 -0.5,-0.4 -0.9,-0.4 -0.4,0 -0.6,-0.2 -0.9,-0.4 -0.3,-0.2 -0.6,-0.2 -1.1,-0.2 -0.2,0 -0.4,0.4 -0.8,0.5 -0.3,0.1 -0.9,0 -1,0 -0.3,0 0.4,-0.8 0.4,-0.8 0.4,-0.2 1,0 0.1,-0.3 -0.3,-0.1 -0.8,0.1 -1.2,0.1 -0.6,0 -0.6,0.1 -0.6,0.6 0,0.5 -0.3,0.4 -0.8,0.4 -0.3,0 -0.2,-0.6 -0.5,-0.7 -0.5,-0.1 -0.4,0.3 -0.6,-0.4 -0.1,-0.3 -0.6,0 -0.9,0.2 -0.2,0.2 -0.7,-0.1 -0.2,-0.2 0.5,-0.1 -0.2,-0.6 -0.5,-0.6 -0.5,0 -0.4,0.3 -0.7,0.6 -0.3,0.3 -0.6,0.1 -0.8,0.6 -0.1,0.2 -0.6,0.3 -0.9,0.4 -0.4,0.2 -0.7,0.3 -1,0.5 -0.5,0.2 -1.1,0.1 -1.6,0.1 -0.3,0 0.2,0.5 0.2,0.8 0,0.4 0,0.7 0,1.1 0,0.6 -0.1,0.4 -0.6,0.6 -0.3,0.1 -0.5,-0.3 -0.9,-0.3 -0.5,0 -0.6,0.2 -0.6,0.6 0,0.5 -0.4,0.2 -0.8,0.4 -0.4,0.2 -0.8,0.3 -0.8,-0.2 0,-0.4 -0.4,-0.4 -0.8,-0.5 -0.5,-0.1 -0.5,0.3 -0.9,0.5 -0.4,0.2 -0.8,0.1 -1.2,0.3 -0.1,0 -0.3,-0.5 -0.5,-0.6 -0.4,-0.1 -1,0.1 -1.3,0.1 -0.5,0.1 -0.2,0.4 -0.8,0.4 -0.4,0 -0.8,0.1 -1,0.2 -0.2,0.1 0.4,0.4 -0.5,0.4 -0.6,0 -0.7,0.1 -0.9,0.4 -0.2,0.4 0,0.6 -0.7,0.7 -0.2,0 -0.6,0.5 -0.6,0.6 -0.1,0.3 -1,0.3 -0.3,0.4 0.4,0.1 0.7,0.1 1.2,0.2 0.4,0.1 0.8,0.2 1.1,0.4 0.3,0.1 0.9,0 1.1,-0.1 0.4,-0.1 0.4,-0.2 0.9,0 0.3,0.1 0.3,0.5 0.5,0.6 0.3,0.1 1.1,0.1 1.4,0.1 0.1,0 0.1,0.9 0.2,1 0.1,0.2 0.2,0.6 0.2,0.9 0,0.1 0.7,0.4 0.9,0.5 0.2,0.2 0.5,0.3 0.8,0.4 0.4,0.1 0.6,0.1 0.9,0.3 0.2,0.5 -0.1,0.9 0,1.2 z"
       style="fill:#003366;fill-opacity:1"
       inkscape:connector-curvature="0">
      <title
         id="title158">American Samoa</title>
    </path>
    <path
       id="GU"
       d="m 584.9,560.6 c 0,0 0.1,0 0.1,0 0.4,0 0.8,0.1 1.3,0.2 0.6,0.1 0.8,0.8 1.3,0.9 0.5,0.2 0.6,0.6 1,0.9 0.1,0.1 0.2,0.3 0.3,0.3 0.7,0.6 -0.8,1.2 0.9,0.8 0,0 1.3,0.5 1.5,0.5 0.6,0.1 1.3,0.1 1.8,0.2 0.6,0.1 -0.6,0.9 -0.9,1.4 -0.3,0.4 -0.1,1.1 -0.1,1.6 0,0.6 -0.1,1 -0.3,1.4 -0.1,0.5 -0.5,0.8 -0.8,1 -0.3,0.3 -0.9,0.5 -1.4,0.6 -0.6,0.1 -0.6,0.5 -1.5,0.5 -0.4,0 -0.5,1 -0.6,1.3 -0.4,0.6 -1.1,0 -1.4,0.8 -0.2,0.5 -0.5,0.5 -0.9,0.8 -0.4,0.3 -0.9,0.5 -1.3,0.6 -0.6,0.3 -1,0.5 -1.8,0.5 -0.3,0 -0.9,0.9 -1,1 -0.4,0.4 -0.5,0.7 -0.9,0.9 -0.2,0.1 -1.2,-0.1 -1.6,0 -0.1,0 0,1.4 0,1.6 0,0.2 -0.8,0.6 -0.9,0.7 -0.1,0.2 0.3,1.2 0.3,1.6 0,0.5 0,1.1 -0.1,1.5 -0.1,0.5 -0.1,1 -0.8,1 -0.7,0 0.4,0.8 0.5,0.9 0.2,0.2 0.2,1.1 0.3,1.4 0.2,0.7 -0.4,0.9 -0.4,1.5 0,0 -1,0.6 -1.1,0.6 -0.4,0.2 -0.7,0.6 -1,0.8 -0.5,0.4 -0.6,0.6 -1,0.9 -0.4,0.3 -1,0.3 -1.6,0.4 -0.6,0.1 -1.1,0.2 -1.8,0.2 -0.4,0 -0.9,-0.6 -1.1,-0.8 -0.5,-0.5 -0.7,0.2 -1,-0.7 0,-0.1 -0.4,-0.8 -0.5,-1.2 -0.2,-0.6 -0.1,-0.9 -0.3,-1.4 -0.1,-0.4 -0.5,-0.6 -0.6,-1 -0.2,-0.5 -0.1,-1.1 -0.4,-1.6 -0.3,-0.5 -0.9,-0.3 -0.9,-1.2 0,-0.7 0.3,-0.8 0.6,-1.3 0.2,-0.3 0.4,-0.9 0.5,-1.3 0.1,-0.4 0.6,-0.9 0.8,-1.3 0,-0.1 -0.1,-0.4 -0.1,-0.6 l -3.1,-2.4 c 0.6,-0.9 0.7,-0.6 1.6,0 0.5,0.3 0.9,0.3 1.5,0.2 0.5,-0.1 0.4,-1.3 0.4,-0.3 0,0.7 -0.2,-0.1 0.5,-0.3 1.2,-0.4 1.1,-0.3 0.1,0.3 -0.2,0.1 1.1,0.5 0.8,-0.5 -0.2,-0.5 -1,0 -0.8,-0.8 0.1,-0.3 1.9,0.1 2,0.1 0.5,0.1 0.9,-0.6 1.5,-0.6 0.5,0 1.2,-0.2 1.9,-0.2 0.5,0 1.4,-0.2 1.8,-0.3 0.8,-0.2 1.1,-0.2 1.6,-0.5 0.4,-0.2 -0.2,-1.4 -0.3,-1.5 -0.2,-0.5 1.7,0 1.8,0 0.8,0.1 0.9,-0.7 1,-1 0.2,-0.7 0.3,-0.9 1,-1.2 0.8,-0.3 1,-0.8 1,-1.5 0,-1 0.4,-1.3 0.6,-2.1 0.1,-0.6 -0.1,-0.8 0.4,-1.4 0.6,-0.6 0.9,-0.8 1.3,-1.4 0.3,-0.5 0.3,-0.9 0.3,-1.5 0,-0.6 0.2,-0.6 -0.4,-1"
       style="fill:#003366;fill-opacity:1"
       inkscape:connector-curvature="0">
      <title
         id="title161">Guam</title>
    </path>
    <path
       id="MP"
       d="m 645.5,558.7 1.1,-0.7 0.9,-0.6 z m 0.1,5.6 2,2 -0.2,-1.9 z m 4.6,5.9 1.3,3.3 v 0 l 1.3,-3.3 z m 5.2,6.6 v 3.3 l 2,0.7 0.7,-3.3 z m 8.7,8.4 -1.7,3.1 0.6,1.9 2.9,1.2 1.2,-1.9 v -3.1 z"
       style="fill:#004d99;fill-opacity:1"
       inkscape:connector-curvature="0">
      <title
         id="title164">Northern Mariana Islands</title>
    </path>
    <path
       id="PR"
       d="m 569.2,530.2 0.9,-2.1 1.7,0.4 1.7,1.3 7.3,0.9 7.3,-0.4 h 3 l 2.6,0.9 1.7,-1.3 h 2.1 l 5.1,0.4 5.1,1.3 1.7,1.7 h 3 l 0.4,2.6 -0.4,1.7 -3.4,0.4 -2.1,0.9 -0.9,2.1 -1.3,2.1 -2.6,1.3 h -5.1 -4.3 l -2.1,-0.9 h -4.3 l -2.1,-0.9 -3.4,0.9 h -4.3 l -2.1,-1.7 -2.6,0.9 -3.4,0.4 -0.4,-2.1 0.9,-1.3 0.9,-2.1 -0.9,-2.6 -3.4,-2.6 1.3,-0.9 z m 46.7,11.6 -1.9,0.6 3.7,1.2 5,-1.2 1.2,-1.9 -3.1,0.6 z m 8.7,-4.3 -1.5,-0.9 2.2,-1.5 0.6,1.5 z"
       style="fill:#001a33;fill-opacity:1"
       inkscape:connector-curvature="0">
      <title
         id="title167">Puerto Rico</title>
    </path>
    <path
       id="VI"
       d="m 646.4,524.1 -1.5,1.1 -1.8,1.1 0.4,1.5 1.8,0.7 2.6,-0.4 1.1,1.8 h 1.8 l 1.1,-1.1 4,-0.7 1.8,-0.4 1.5,-1.1 -0.7,-1.5 h -2.2 l -5.1,-1.1 h -4.8 z m 14.4,1.4 -0.3,1 0.9,0.5 2,-0.2 1.4,0.7 1.1,-0.2 0.3,-1.2 v 0 l 1.4,-1 0.3,-1 -1.1,-0.5 -1.7,0.5 -2,-0.7 -0.9,0.7 -0.3,1 z m -5.3,20.4 2.6,-0.7 1.6,0.3 2.3,-1.3 1,0.3 0.6,1 1,1.6 2,-1 1,0.7 4.3,-0.6 0.5,2.4 -1.8,0.8 h -3.3 l -5.5,1.6 -2.3,-0.3 -3.9,0.6 -1.3,-0.6 -1,0.6 -2.6,0.3 c 0,0 -1.5,-0.5 -0.3,-1.3 2,-1.3 1,-3.6 1,-3.6 z"
       style="fill:#003366;fill-opacity:1"
       inkscape:connector-curvature="0">
      <title
         id="title170">U.S. Virgin Islands</title>
    </path>
    <g
       id="DC"
       style="fill:#000000;fill-opacity:1">
      <title
         id="title173">District of Columbia</title>
      <path
         id="DC1"
         d="m 801.8,253.8 -1.1,-1.6 -1,-0.8 1.1,-1.6 2.2,1.5 z"
         style="fill:#000000;fill-opacity:1"
         inkscape:connector-curvature="0" />
      <circle
         id="DC2"
         cx="801.29999"
         cy="251.8"
         r="5"
         style="opacity:1;fill:#000000;fill-opacity:1;stroke:#ffffff;stroke-width:1.5" />
      <!-- Set opacity to "0" to hide DC circle -->
    </g>
    <text
       xml:space="preserve"
       style="font-size:24px;line-height:1.66667;font-family:Arial;-inkscape-font-specification:'Arial, Normal';font-variant-ligatures:none;letter-spacing:0px;word-spacing:0px;fill:#000000;fill-opacity:1;stroke:#000000;stroke-opacity:1"
       x="851.46106"
       y="298.19818"
       id="text4586" />
    <text
       xml:space="preserve"
       style="font-size:16px;line-height:1;font-family:Arial;-inkscape-font-specification:'Arial, Normal';font-variant-ligatures:none;letter-spacing:0px;word-spacing:0px;fill:#000000;fill-opacity:1"
       x="849.41327"
       y="269.35101"
       id="text8309"><tspan
         sodipodi:role="line"
         x="849.41327"
         y="269.35101"
         id="tspan15277"
         style="font-size:16px">States &amp; </tspan><tspan
         sodipodi:role="line"
         x="849.41327"
         y="285.35101"
         id="tspan37010"
         style="font-size:16px">territories by</tspan><tspan
         sodipodi:role="line"
         x="849.41327"
         y="301.35101"
         id="tspan15493"
         style="font-size:16px">population</tspan><tspan
         sodipodi:role="line"
         x="849.41327"
         y="317.35101"
         id="tspan15495"
         style="font-size:16px">density</tspan><tspan
         sodipodi:role="line"
         x="849.41327"
         y="333.35101"
         id="tspan15497"
         style="font-size:16px">(2020, per </tspan><tspan
         sodipodi:role="line"
         x="849.41327"
         y="349.35101"
         id="tspan29838"
         style="font-size:16px">sq mi)</tspan></text>
    <rect
       style="fill:#d9edff;fill-opacity:1;stroke:none;stroke-width:2;stroke-opacity:1"
       id="rect18369"
       width="20"
       height="20"
       x="847.51447"
       y="356.75339" />
    <rect
       style="fill:#b2d9ff;fill-opacity:1;stroke:none;stroke-width:2;stroke-opacity:1"
       id="rect18369-2"
       width="20"
       height="20"
       x="847.51447"
       y="376.75339" />
    <rect
       style="fill:#8cc6ff;fill-opacity:1;stroke:none;stroke-width:2;stroke-opacity:1"
       id="rect18369-2-7"
       width="20"
       height="20"
       x="847.51447"
       y="396.75339" />
    <rect
       style="fill:#4da5ff;fill-opacity:1;stroke:none;stroke-width:2;stroke-opacity:1"
       id="rect18369-2-7-2"
       width="20"
       height="20"
       x="847.51447"
       y="416.75339" />
    <rect
       style="fill:#0080ff;fill-opacity:1;stroke:none;stroke-width:2;stroke-opacity:1"
       id="rect18369-2-7-2-4"
       width="20"
       height="20"
       x="847.51447"
       y="436.75339" />
    <rect
       style="fill:#0066cc;fill-opacity:1;stroke:none;stroke-width:2;stroke-opacity:1"
       id="rect18369-2-7-2-4-3"
       width="20"
       height="20"
       x="847.51447"
       y="456.75339" />
    <rect
       style="fill:#004d99;fill-opacity:1;stroke:none;stroke-width:2;stroke-opacity:1"
       id="rect18369-2-7-2-4-3-4"
       width="20"
       height="20"
       x="847.51447"
       y="476.75339" />
    <rect
       style="fill:#003366;fill-opacity:1;stroke:none;stroke-width:2;stroke-opacity:1"
       id="rect18369-2-7-2-4-3-4-5"
       width="20"
       height="20"
       x="847.51447"
       y="496.75339" />
    <rect
       style="fill:#001a33;fill-opacity:1;stroke:none;stroke-width:2;stroke-opacity:1"
       id="rect18369-2-7-2-4-3-4-5-1"
       width="20"
       height="20"
       x="847.51447"
       y="516.75342" />
    <rect
       style="fill:#000000;fill-opacity:1;stroke:none;stroke-width:2;stroke-opacity:1"
       id="rect18369-2-7-2-4-3-4-5-1-0"
       width="20"
       height="20"
       x="847.51447"
       y="536.75342" />
    <text
       xml:space="preserve"
       style="font-size:24px;line-height:0;font-family:Arial;-inkscape-font-specification:'Arial, Normal';font-variant-ligatures:none;letter-spacing:0px;word-spacing:0px;fill:#000000;fill-opacity:1"
       x="872.85107"
       y="373.44431"
       id="text20134"><tspan
         style="font-size:16px;line-height:20px"
         sodipodi:role="line"
         id="tspan24670"
         x="872.85107"
         y="373.44431">&lt;5</tspan><tspan
         style="font-size:16px;line-height:20px"
         sodipodi:role="line"
         id="tspan24672"
         x="872.85107"
         y="393.44431">5-10</tspan><tspan
         style="font-size:16px;line-height:20px"
         sodipodi:role="line"
         id="tspan24674"
         x="872.85107"
         y="413.44431">10-20</tspan><tspan
         style="font-size:16px;line-height:20px"
         sodipodi:role="line"
         x="872.85107"
         y="433.44431"
         id="tspan25040">20-50</tspan><tspan
         style="font-size:16px;line-height:20px"
         sodipodi:role="line"
         x="872.85107"
         y="453.44431"
         id="tspan25052">50-100</tspan><tspan
         style="font-size:16px;line-height:20px"
         sodipodi:role="line"
         x="872.85107"
         y="473.44431"
         id="tspan25054">100-200</tspan><tspan
         style="font-size:16px;line-height:20px"
         sodipodi:role="line"
         x="872.85107"
         y="493.44431"
         id="tspan25056">200-400</tspan><tspan
         style="font-size:16px;line-height:20px"
         sodipodi:role="line"
         x="872.85107"
         y="513.44434"
         id="tspan25060">400-800</tspan><tspan
         style="font-size:16px;line-height:20px"
         sodipodi:role="line"
         x="872.85107"
         y="533.44434"
         id="tspan25064">800-1,600</tspan><tspan
         style="font-size:16px;line-height:20px"
         sodipodi:role="line"
         x="872.85107"
         y="553.44434"
         id="tspan26130">11,295</tspan><tspan
         sodipodi:role="line"
         x="872.85107"
         y="565.65033"
         id="tspan25066" /><tspan
         sodipodi:role="line"
         x="872.85107"
         y="565.65033"
         id="tspan21176" /></text>
  </g>
  <path
     id="frames"
     fill="none"
     stroke="#A9A9A9"
     stroke-width="2"
     d="M215,493v55l36,45 M0,425h147l68,68h85l54,54v46 M560,593v-78H682V593 M635,515V593 M560,556H682 M598,556V593" />
  <metadata
     id="metadata185">
    <rdf:RDF>
      <cc:Work
         rdf:about="">
        <dc:title>U.S. states and territories by population density</dc:title>
        <dc:format>image/svg+xml</dc:format>
        <dc:type
           rdf:resource="http://purl.org/dc/dcmitype/StillImage" />
      </cc:Work>
    </rdf:RDF>
  </metadata>
</svg>
